<svg width="93" height="40" viewBox="0 0 93 40" fill="none" xmlns="http://www.w3.org/2000/svg">
<rect x="0.5" y="0.5" width="92" height="39" rx="19.5" fill="#164293"/>
<rect x="0.5" y="0.5" width="92" height="39" rx="19.5" stroke="#164293"/>
<path d="M17.12 26V14.48H18.816L24.488 23.04V14.48H26.184V26H24.488L18.816 17.432V26H17.12ZM32.2489 26.24C31.3902 26.24 30.6355 26.0533 29.9849 25.68C29.3395 25.3013 28.8355 24.776 28.4729 24.104C28.1155 23.4267 27.9369 22.6427 27.9369 21.752C27.9369 20.808 28.1129 19.9893 28.4649 19.296C28.8222 18.6027 29.3182 18.0667 29.9529 17.688C30.5875 17.3093 31.3262 17.12 32.1689 17.12C33.0489 17.12 33.7982 17.3253 34.4169 17.736C35.0355 18.1413 35.4969 18.72 35.8009 19.472C36.1102 20.224 36.2329 21.1173 36.1689 22.152H34.4969V21.544C34.4862 20.5413 34.2942 19.8 33.9209 19.32C33.5529 18.84 32.9902 18.6 32.2329 18.6C31.3955 18.6 30.7662 18.864 30.3449 19.392C29.9235 19.92 29.7129 20.6827 29.7129 21.68C29.7129 22.6293 29.9235 23.3653 30.3449 23.888C30.7662 24.4053 31.3742 24.664 32.1689 24.664C32.6915 24.664 33.1422 24.5467 33.5209 24.312C33.9049 24.072 34.2035 23.7307 34.4169 23.288L36.0569 23.808C35.7209 24.5813 35.2115 25.1813 34.5289 25.608C33.8462 26.0293 33.0862 26.24 32.2489 26.24ZM29.1689 22.152V20.848H35.3369V22.152H29.1689ZM36.6913 26L39.9233 21.632L36.7633 17.36H38.7473L40.8993 20.328L43.0273 17.36H45.0113L41.8513 21.632L45.0913 26H43.0993L40.8993 22.936L38.6833 26H36.6913ZM51.314 26C50.77 26.1067 50.2367 26.152 49.714 26.136C49.1913 26.12 48.7247 26.0187 48.314 25.832C47.9033 25.6453 47.594 25.352 47.386 24.952C47.1993 24.5947 47.098 24.232 47.082 23.864C47.0713 23.4907 47.066 23.0693 47.066 22.6V14.96H48.746V22.52C48.746 22.8667 48.7487 23.168 48.754 23.424C48.7647 23.68 48.8207 23.896 48.922 24.072C49.114 24.4027 49.418 24.592 49.834 24.64C50.2553 24.6827 50.7487 24.664 51.314 24.584V26ZM45.41 18.704V17.36H51.314V18.704H45.41Z" fill="white"/>
<path d="M75.1922 20.4422L68.9422 26.6922C68.8841 26.7502 68.8152 26.7963 68.7393 26.8277C68.6635 26.8592 68.5821 26.8753 68.5 26.8753C68.4179 26.8753 68.3366 26.8592 68.2607 26.8277C68.1848 26.7963 68.1159 26.7502 68.0578 26.6922C67.9998 26.6341 67.9537 26.5652 67.9223 26.4893C67.8908 26.4134 67.8747 26.3321 67.8747 26.25C67.8747 26.1679 67.8908 26.0865 67.9223 26.0107C67.9537 25.9348 67.9998 25.8659 68.0578 25.8078L73.8664 20L68.0578 14.1922C67.9405 14.0749 67.8747 13.9158 67.8747 13.75C67.8747 13.5841 67.9405 13.4251 68.0578 13.3078C68.1751 13.1905 68.3342 13.1246 68.5 13.1246C68.6659 13.1246 68.8249 13.1905 68.9422 13.3078L75.1922 19.5578C75.2503 19.6158 75.2964 19.6848 75.3279 19.7606C75.3593 19.8365 75.3755 19.9178 75.3755 20C75.3755 20.0821 75.3593 20.1634 75.3279 20.2393C75.2964 20.3152 75.2503 20.3841 75.1922 20.4422Z" fill="white"/>
</svg>
