<?xml version="1.0" encoding="utf-8"?>
<!-- Generator: Adobe Illustrator 24.2.3, SVG Export Plug-In . SVG Version: 6.00 Build 0)  -->
<svg version="1.1" id="Ebene_1" xmlns="http://www.w3.org/2000/svg" xmlns:xlink="http://www.w3.org/1999/xlink" x="0px" y="0px"
	 viewBox="0 0 600 525" style="enable-background:new 0 0 600 525;" xml:space="preserve">
<style type="text/css">
	.st0{fill:#ffe100;}
</style>
<path d="M597.6,499.6L313.8,8c-2.9-5-8.2-8-13.9-8c-5.7,0-11,3.1-13.9,8L2.2,499.6c-2.9,5-2.9,11.1,0,16c2.9,5,8.2,8,13.9,8h567.6
	c5.7,0,11-3.1,13.9-8C600.5,510.6,600.5,504.5,597.6,499.6L597.6,499.6z"/>
<path class="st0" d="M44,491.5L300,50l256,441.5H44z"/>
<path d="M337.9,434.6c0,20.9-17,37.9-37.9,37.9s-37.9-17-37.9-37.9s17-37.9,37.9-37.9S337.9,413.7,337.9,434.6L337.9,434.6z"/>
<path d="M300,168.6c-20.6,0-37.3,17-37.3,38.1l11,133.3c2.1,17.2,3.9,27,11,31.6c4.6,2.1,9.8,3.3,15.2,3.3c5.4,0,10.5-1.2,15.2-3.3
	c7.2-4.6,9-14.4,11.1-31.6l11-133.3C337.3,185.6,320.6,168.6,300,168.6L300,168.6z"/>
</svg>
