<svg width="93" height="40" viewBox="0 0 93 40" fill="none" xmlns="http://www.w3.org/2000/svg">
<rect x="0.5" y="0.5" width="92" height="39" rx="19.5" stroke="#164293"/>
<path d="M24.9422 25.8078C25.0003 25.8659 25.0463 25.9348 25.0777 26.0107C25.1092 26.0865 25.1254 26.1679 25.1254 26.25C25.1254 26.3321 25.1092 26.4134 25.0777 26.4893C25.0463 26.5652 25.0003 26.6341 24.9422 26.6922C24.8841 26.7502 24.8152 26.7963 24.7393 26.8277C24.6634 26.8592 24.5821 26.8753 24.5 26.8753C24.4179 26.8753 24.3366 26.8592 24.2607 26.8277C24.1848 26.7963 24.1159 26.7502 24.0578 26.6922L17.8078 20.4422C17.7497 20.3841 17.7036 20.3152 17.6722 20.2393C17.6407 20.1634 17.6245 20.0821 17.6245 20C17.6245 19.9178 17.6407 19.8365 17.6722 19.7606C17.7036 19.6848 17.7497 19.6158 17.8078 19.5578L24.0578 13.3078C24.1751 13.1905 24.3342 13.1246 24.5 13.1246C24.6659 13.1246 24.8249 13.1905 24.9422 13.3078C25.0595 13.4251 25.1254 13.5841 25.1254 13.75C25.1254 13.9158 25.0595 14.0749 24.9422 14.1922L19.1336 20L24.9422 25.8078Z" fill="#164293"/>
<path d="M41.12 26V14.48H45.648C46.3787 14.48 46.992 14.6293 47.488 14.928C47.984 15.2267 48.3573 15.6133 48.608 16.088C48.8587 16.5573 48.984 17.0533 48.984 17.576C48.984 18.2107 48.8267 18.7547 48.512 19.208C48.2027 19.6613 47.784 19.9707 47.256 20.136L47.24 19.744C47.976 19.9253 48.5413 20.28 48.936 20.808C49.3307 21.3307 49.528 21.9413 49.528 22.64C49.528 23.3173 49.392 23.9067 49.12 24.408C48.8533 24.9093 48.4613 25.3013 47.944 25.584C47.432 25.8613 46.8107 26 46.08 26H41.12ZM42.816 24.408H45.824C46.2027 24.408 46.5413 24.336 46.84 24.192C47.144 24.048 47.3813 23.8427 47.552 23.576C47.728 23.304 47.816 22.9813 47.816 22.608C47.816 22.2613 47.7387 21.9493 47.584 21.672C47.4347 21.3893 47.216 21.168 46.928 21.008C46.6453 20.8427 46.312 20.76 45.928 20.76H42.816V24.408ZM42.816 19.184H45.624C45.9333 19.184 46.2107 19.1227 46.456 19C46.7067 18.872 46.904 18.6907 47.048 18.456C47.1973 18.216 47.272 17.928 47.272 17.592C47.272 17.144 47.1227 16.776 46.824 16.488C46.5253 16.2 46.1253 16.056 45.624 16.056H42.816V19.184ZM53.56 26.24C52.92 26.24 52.384 26.1227 51.952 25.888C51.52 25.648 51.192 25.3333 50.968 24.944C50.7493 24.5493 50.64 24.1173 50.64 23.648C50.64 23.2107 50.7173 22.8267 50.872 22.496C51.0267 22.1653 51.256 21.8853 51.56 21.656C51.864 21.4213 52.2373 21.232 52.68 21.088C53.064 20.976 53.4987 20.8773 53.984 20.792C54.4693 20.7067 54.9787 20.6267 55.512 20.552C56.0507 20.4773 56.584 20.4027 57.112 20.328L56.504 20.664C56.5147 19.9867 56.3707 19.4853 56.072 19.16C55.7787 18.8293 55.272 18.664 54.552 18.664C54.0987 18.664 53.6827 18.7707 53.304 18.984C52.9253 19.192 52.6613 19.5387 52.512 20.024L50.952 19.544C51.1653 18.8027 51.5707 18.2133 52.168 17.776C52.7707 17.3387 53.5707 17.12 54.568 17.12C55.3413 17.12 56.0133 17.2533 56.584 17.52C57.16 17.7813 57.5813 18.1973 57.848 18.768C57.9867 19.0507 58.072 19.3493 58.104 19.664C58.136 19.9787 58.152 20.3173 58.152 20.68V26H56.672V24.024L56.96 24.28C56.6027 24.9413 56.1467 25.4347 55.592 25.76C55.0427 26.08 54.3653 26.24 53.56 26.24ZM53.856 24.872C54.3307 24.872 54.7387 24.7893 55.08 24.624C55.4213 24.4533 55.696 24.2373 55.904 23.976C56.112 23.7147 56.248 23.4427 56.312 23.16C56.4027 22.904 56.4533 22.616 56.464 22.296C56.48 21.976 56.488 21.72 56.488 21.528L57.032 21.728C56.504 21.808 56.024 21.88 55.592 21.944C55.16 22.008 54.768 22.072 54.416 22.136C54.0693 22.1947 53.76 22.2667 53.488 22.352C53.2587 22.432 53.0533 22.528 52.872 22.64C52.696 22.752 52.5547 22.888 52.448 23.048C52.3467 23.208 52.296 23.4027 52.296 23.632C52.296 23.856 52.352 24.064 52.464 24.256C52.576 24.4427 52.7467 24.592 52.976 24.704C53.2053 24.816 53.4987 24.872 53.856 24.872ZM63.9254 26.24C63.04 26.24 62.288 26.0427 61.6694 25.648C61.0507 25.2533 60.576 24.712 60.2454 24.024C59.92 23.336 59.7547 22.5547 59.7494 21.68C59.7547 20.7893 59.9254 20.0027 60.2614 19.32C60.5974 18.632 61.0774 18.0933 61.7014 17.704C62.3254 17.3147 63.0747 17.12 63.9494 17.12C64.8934 17.12 65.6987 17.3547 66.3654 17.824C67.0374 18.2933 67.48 18.936 67.6934 19.752L66.0294 20.232C65.864 19.7467 65.592 19.3707 65.2134 19.104C64.84 18.832 64.4107 18.696 63.9254 18.696C63.376 18.696 62.9254 18.8267 62.5734 19.088C62.2214 19.344 61.96 19.696 61.7894 20.144C61.6187 20.592 61.5307 21.104 61.5254 21.68C61.5307 22.5707 61.7334 23.2907 62.1334 23.84C62.5387 24.3893 63.136 24.664 63.9254 24.664C64.464 24.664 64.8987 24.5413 65.2294 24.296C65.5654 24.0453 65.8214 23.688 65.9974 23.224L67.6934 23.624C67.4107 24.4667 66.944 25.1147 66.2934 25.568C65.6427 26.016 64.8534 26.24 63.9254 26.24ZM69.3151 26L69.3231 14.48H71.0191V21.52L74.4111 17.36H76.5391L72.9551 21.68L76.9071 26H74.6351L71.0191 21.84V26H69.3151Z" fill="#164293"/>
</svg>
