<svg width="135" height="40" viewBox="0 0 135 40" fill="none" xmlns="http://www.w3.org/2000/svg">
<rect x="0.5" y="0.5" width="134" height="39" rx="19.5" fill="#164293"/>
<rect x="0.5" y="0.5" width="134" height="39" rx="19.5" stroke="#164293"/>
<path d="M28.875 15.625H22.2586L20.125 13.4914C20.0093 13.3748 19.8717 13.2824 19.72 13.2195C19.5683 13.1566 19.4056 13.1245 19.2414 13.125H15.125C14.7935 13.125 14.4755 13.2567 14.2411 13.4911C14.0067 13.7255 13.875 14.0435 13.875 14.375V25.6734C13.8754 25.992 14.0021 26.2974 14.2274 26.5226C14.4526 26.7479 14.758 26.8746 15.0766 26.875H28.9445C29.2575 26.8746 29.5575 26.7501 29.7788 26.5288C30.0001 26.3075 30.1246 26.0075 30.125 25.6945V16.875C30.125 16.5435 29.9933 16.2255 29.7589 15.9911C29.5245 15.7567 29.2065 15.625 28.875 15.625ZM19.2414 14.375L20.4914 15.625H15.125V14.375H19.2414ZM28.875 25.625H15.125V16.875H28.875V25.625ZM22 18.75C22.1658 18.75 22.3247 18.8159 22.4419 18.9331C22.5592 19.0503 22.625 19.2092 22.625 19.375V20.625H23.875C24.0408 20.625 24.1997 20.6909 24.3169 20.8081C24.4342 20.9253 24.5 21.0842 24.5 21.25C24.5 21.4158 24.4342 21.5747 24.3169 21.6919C24.1997 21.8092 24.0408 21.875 23.875 21.875H22.625V23.125C22.625 23.2908 22.5592 23.4497 22.4419 23.5669C22.3247 23.6842 22.1658 23.75 22 23.75C21.8342 23.75 21.6753 23.6842 21.5581 23.5669C21.4408 23.4497 21.375 23.2908 21.375 23.125V21.875H20.125C19.9592 21.875 19.8003 21.8092 19.6831 21.6919C19.5658 21.5747 19.5 21.4158 19.5 21.25C19.5 21.0842 19.5658 20.9253 19.6831 20.8081C19.8003 20.6909 19.9592 20.625 20.125 20.625H21.375V19.375C21.375 19.2092 21.4408 19.0503 21.5581 18.9331C21.6753 18.8159 21.8342 18.75 22 18.75Z" fill="white"/>
<path d="M40.32 26L44.064 14.48H46.472L50.216 26H48.48L45.032 15.488H45.464L42.056 26H40.32ZM42.264 23.4V21.832H48.28V23.4H42.264ZM55.0833 26.24C54.2779 26.24 53.5819 26.04 52.9953 25.64C52.4139 25.24 51.9633 24.696 51.6433 24.008C51.3286 23.3147 51.1713 22.536 51.1713 21.672C51.1713 20.8027 51.3313 20.0267 51.6513 19.344C51.9713 18.656 52.4246 18.1147 53.0113 17.72C53.6033 17.32 54.3046 17.12 55.1153 17.12C55.9313 17.12 56.6166 17.32 57.1713 17.72C57.7313 18.1147 58.1526 18.656 58.4353 19.344C58.7233 20.032 58.8673 20.808 58.8673 21.672C58.8673 22.536 58.7233 23.312 58.4353 24C58.1473 24.688 57.7233 25.2347 57.1633 25.64C56.6033 26.04 55.9099 26.24 55.0833 26.24ZM55.3153 24.728C55.8646 24.728 56.3126 24.5973 56.6593 24.336C57.0059 24.0747 57.2593 23.7147 57.4193 23.256C57.5793 22.7973 57.6593 22.2693 57.6593 21.672C57.6593 21.0747 57.5766 20.5467 57.4113 20.088C57.2513 19.6293 57.0006 19.272 56.6593 19.016C56.3233 18.76 55.8939 18.632 55.3713 18.632C54.8166 18.632 54.3606 18.768 54.0033 19.04C53.6459 19.312 53.3793 19.6773 53.2033 20.136C53.0326 20.5947 52.9473 21.1067 52.9473 21.672C52.9473 22.2427 53.0326 22.76 53.2033 23.224C53.3793 23.6827 53.6406 24.048 53.9873 24.32C54.3393 24.592 54.7819 24.728 55.3153 24.728ZM57.6593 26V19.784H57.4673V14.48H59.1473V26H57.6593ZM64.8176 26.24C64.0123 26.24 63.3163 26.04 62.7296 25.64C62.1483 25.24 61.6976 24.696 61.3776 24.008C61.063 23.3147 60.9056 22.536 60.9056 21.672C60.9056 20.8027 61.0656 20.0267 61.3856 19.344C61.7056 18.656 62.159 18.1147 62.7456 17.72C63.3376 17.32 64.039 17.12 64.8496 17.12C65.6656 17.12 66.351 17.32 66.9056 17.72C67.4656 18.1147 67.887 18.656 68.1696 19.344C68.4576 20.032 68.6016 20.808 68.6016 21.672C68.6016 22.536 68.4576 23.312 68.1696 24C67.8816 24.688 67.4576 25.2347 66.8976 25.64C66.3376 26.04 65.6443 26.24 64.8176 26.24ZM65.0496 24.728C65.599 24.728 66.047 24.5973 66.3936 24.336C66.7403 24.0747 66.9936 23.7147 67.1536 23.256C67.3136 22.7973 67.3936 22.2693 67.3936 21.672C67.3936 21.0747 67.311 20.5467 67.1456 20.088C66.9856 19.6293 66.735 19.272 66.3936 19.016C66.0576 18.76 65.6283 18.632 65.1056 18.632C64.551 18.632 64.095 18.768 63.7376 19.04C63.3803 19.312 63.1136 19.6773 62.9376 20.136C62.767 20.5947 62.6816 21.1067 62.6816 21.672C62.6816 22.2427 62.767 22.76 62.9376 23.224C63.1136 23.6827 63.375 24.048 63.7216 24.32C64.0736 24.592 64.5163 24.728 65.0496 24.728ZM67.3936 26V19.784H67.2016V14.48H68.8816V26H67.3936ZM75.1151 26V17.056C75.1151 16.8373 75.1231 16.6053 75.1391 16.36C75.1551 16.1093 75.2005 15.864 75.2751 15.624C75.3551 15.3787 75.4858 15.1547 75.6671 14.952C75.8858 14.712 76.1258 14.5413 76.3871 14.44C76.6485 14.3387 76.9071 14.28 77.1631 14.264C77.4245 14.248 77.6645 14.24 77.8831 14.24H78.9711V15.616H77.9631C77.5685 15.616 77.2725 15.7147 77.0751 15.912C76.8831 16.104 76.7871 16.3787 76.7871 16.736V26H75.1151ZM73.6831 18.704V17.36H78.9711V18.704H73.6831ZM83.6845 26.24C82.8205 26.24 82.0712 26.0453 81.4365 25.656C80.8018 25.2667 80.3112 24.7307 79.9645 24.048C79.6232 23.36 79.4525 22.568 79.4525 21.672C79.4525 20.7707 79.6285 19.9787 79.9805 19.296C80.3325 18.608 80.8258 18.0747 81.4605 17.696C82.0952 17.312 82.8365 17.12 83.6845 17.12C84.5485 17.12 85.2978 17.3147 85.9325 17.704C86.5672 18.0933 87.0578 18.6293 87.4045 19.312C87.7512 19.9947 87.9245 20.7813 87.9245 21.672C87.9245 22.5733 87.7485 23.368 87.3965 24.056C87.0498 24.7387 86.5592 25.2747 85.9245 25.664C85.2898 26.048 84.5432 26.24 83.6845 26.24ZM83.6845 24.664C84.5112 24.664 85.1272 24.3867 85.5325 23.832C85.9432 23.272 86.1485 22.552 86.1485 21.672C86.1485 20.7707 85.9405 20.0507 85.5245 19.512C85.1138 18.968 84.5005 18.696 83.6845 18.696C83.1245 18.696 82.6632 18.824 82.3005 19.08C81.9378 19.3307 81.6685 19.68 81.4925 20.128C81.3165 20.5707 81.2285 21.0853 81.2285 21.672C81.2285 22.5787 81.4365 23.304 81.8525 23.848C82.2685 24.392 82.8792 24.664 83.6845 24.664ZM89.8425 26V14.24H91.5145V26H89.8425ZM97.3489 26.24C96.5435 26.24 95.8475 26.04 95.2609 25.64C94.6795 25.24 94.2289 24.696 93.9089 24.008C93.5942 23.3147 93.4369 22.536 93.4369 21.672C93.4369 20.8027 93.5969 20.0267 93.9169 19.344C94.2369 18.656 94.6902 18.1147 95.2769 17.72C95.8689 17.32 96.5702 17.12 97.3809 17.12C98.1969 17.12 98.8822 17.32 99.4369 17.72C99.9969 18.1147 100.418 18.656 100.701 19.344C100.989 20.032 101.133 20.808 101.133 21.672C101.133 22.536 100.989 23.312 100.701 24C100.413 24.688 99.9889 25.2347 99.4289 25.64C98.8689 26.04 98.1755 26.24 97.3489 26.24ZM97.5809 24.728C98.1302 24.728 98.5782 24.5973 98.9249 24.336C99.2715 24.0747 99.5249 23.7147 99.6849 23.256C99.8449 22.7973 99.9249 22.2693 99.9249 21.672C99.9249 21.0747 99.8422 20.5467 99.6769 20.088C99.5169 19.6293 99.2662 19.272 98.9249 19.016C98.5889 18.76 98.1595 18.632 97.6369 18.632C97.0822 18.632 96.6262 18.768 96.2689 19.04C95.9115 19.312 95.6449 19.6773 95.4689 20.136C95.2982 20.5947 95.2129 21.1067 95.2129 21.672C95.2129 22.2427 95.2982 22.76 95.4689 23.224C95.6449 23.6827 95.9062 24.048 96.2529 24.32C96.6049 24.592 97.0475 24.728 97.5809 24.728ZM99.9249 26V19.784H99.7329V14.48H101.413V26H99.9249ZM107.483 26.24C106.625 26.24 105.87 26.0533 105.219 25.68C104.574 25.3013 104.07 24.776 103.707 24.104C103.35 23.4267 103.171 22.6427 103.171 21.752C103.171 20.808 103.347 19.9893 103.699 19.296C104.057 18.6027 104.553 18.0667 105.187 17.688C105.822 17.3093 106.561 17.12 107.403 17.12C108.283 17.12 109.033 17.3253 109.651 17.736C110.27 18.1413 110.731 18.72 111.035 19.472C111.345 20.224 111.467 21.1173 111.403 22.152H109.731V21.544C109.721 20.5413 109.529 19.8 109.155 19.32C108.787 18.84 108.225 18.6 107.467 18.6C106.63 18.6 106.001 18.864 105.579 19.392C105.158 19.92 104.947 20.6827 104.947 21.68C104.947 22.6293 105.158 23.3653 105.579 23.888C106.001 24.4053 106.609 24.664 107.403 24.664C107.926 24.664 108.377 24.5467 108.755 24.312C109.139 24.072 109.438 23.7307 109.651 23.288L111.291 23.808C110.955 24.5813 110.446 25.1813 109.763 25.608C109.081 26.0293 108.321 26.24 107.483 26.24ZM104.403 22.152V20.848H110.571V22.152H104.403ZM113.198 26V17.36H114.686V19.456L114.478 19.184C114.585 18.9067 114.723 18.6533 114.894 18.424C115.065 18.1893 115.262 17.9973 115.486 17.848C115.705 17.688 115.947 17.5653 116.214 17.48C116.486 17.3893 116.763 17.336 117.046 17.32C117.329 17.2987 117.601 17.312 117.862 17.36V18.928C117.579 18.8533 117.265 18.832 116.918 18.864C116.577 18.896 116.262 19.0053 115.974 19.192C115.702 19.368 115.486 19.5813 115.326 19.832C115.171 20.0827 115.059 20.3627 114.99 20.672C114.921 20.976 114.886 21.2987 114.886 21.64V26H113.198Z" fill="white"/>
</svg>
