<svg width="118" height="40" viewBox="0 0 118 40" fill="none" xmlns="http://www.w3.org/2000/svg">
<rect x="0.5" y="0.5" width="117" height="39" rx="19.5" stroke="#164293"/>
<path d="M28.0672 25.1829C28.1253 25.241 28.1713 25.3099 28.2027 25.3858C28.2342 25.4617 28.2503 25.543 28.2503 25.6251C28.2503 25.7072 28.2342 25.7885 28.2027 25.8644C28.1713 25.9403 28.1253 26.0092 28.0672 26.0673C28.0091 26.1254 27.9402 26.1714 27.8643 26.2028C27.7884 26.2343 27.7071 26.2505 27.625 26.2505C27.5429 26.2505 27.4616 26.2343 27.3857 26.2028C27.3098 26.1714 27.2409 26.1254 27.1828 26.0673L22 20.8837L16.8172 26.0673C16.6999 26.1846 16.5408 26.2505 16.375 26.2505C16.2091 26.2505 16.0501 26.1846 15.9328 26.0673C15.8155 25.95 15.7496 25.791 15.7496 25.6251C15.7496 25.4593 15.8155 25.3002 15.9328 25.1829L21.1164 20.0001L15.9328 14.8173C15.8155 14.7 15.7496 14.541 15.7496 14.3751C15.7496 14.2093 15.8155 14.0502 15.9328 13.9329C16.0501 13.8156 16.2091 13.7498 16.375 13.7498C16.5408 13.7498 16.6999 13.8156 16.8172 13.9329L22 19.1165L27.1828 13.9329C27.3001 13.8156 27.4591 13.7498 27.625 13.7498C27.7908 13.7498 27.9499 13.8156 28.0672 13.9329C28.1845 14.0502 28.2503 14.2093 28.2503 14.3751C28.2503 14.541 28.1845 14.7 28.0672 14.8173L22.8836 20.0001L28.0672 25.1829Z" fill="#164293"/>
<path d="M45.928 26.24C44.776 26.24 43.7947 25.9893 42.984 25.488C42.1733 24.9813 41.552 24.2773 41.12 23.376C40.6933 22.4747 40.48 21.4293 40.48 20.24C40.48 19.0507 40.6933 18.0053 41.12 17.104C41.552 16.2027 42.1733 15.5013 42.984 15C43.7947 14.4933 44.776 14.24 45.928 14.24C47.256 14.24 48.3547 14.576 49.224 15.248C50.0987 15.92 50.7067 16.824 51.048 17.96L49.352 18.416C49.128 17.6107 48.728 16.9787 48.152 16.52C47.5813 16.0613 46.84 15.832 45.928 15.832C45.112 15.832 44.432 16.016 43.888 16.384C43.344 16.752 42.9333 17.2667 42.656 17.928C42.384 18.5893 42.248 19.36 42.248 20.24C42.2427 21.12 42.376 21.8907 42.648 22.552C42.9253 23.2133 43.336 23.728 43.88 24.096C44.4293 24.464 45.112 24.648 45.928 24.648C46.84 24.648 47.5813 24.4187 48.152 23.96C48.728 23.496 49.128 22.864 49.352 22.064L51.048 22.52C50.7067 23.656 50.0987 24.56 49.224 25.232C48.3547 25.904 47.256 26.24 45.928 26.24ZM52.9675 26V14.24H54.6395V26H52.9675ZM60.8739 26.24C60.0152 26.24 59.2605 26.0533 58.6099 25.68C57.9645 25.3013 57.4605 24.776 57.0979 24.104C56.7405 23.4267 56.5619 22.6427 56.5619 21.752C56.5619 20.808 56.7379 19.9893 57.0899 19.296C57.4472 18.6027 57.9432 18.0667 58.5779 17.688C59.2125 17.3093 59.9512 17.12 60.7939 17.12C61.6739 17.12 62.4232 17.3253 63.0419 17.736C63.6605 18.1413 64.1219 18.72 64.4259 19.472C64.7352 20.224 64.8579 21.1173 64.7939 22.152H63.1219V21.544C63.1112 20.5413 62.9192 19.8 62.5459 19.32C62.1779 18.84 61.6152 18.6 60.8579 18.6C60.0205 18.6 59.3912 18.864 58.9699 19.392C58.5485 19.92 58.3379 20.6827 58.3379 21.68C58.3379 22.6293 58.5485 23.3653 58.9699 23.888C59.3912 24.4053 59.9992 24.664 60.7939 24.664C61.3165 24.664 61.7672 24.5467 62.1459 24.312C62.5299 24.072 62.8285 23.7307 63.0419 23.288L64.6819 23.808C64.3459 24.5813 63.8365 25.1813 63.1539 25.608C62.4712 26.0293 61.7112 26.24 60.8739 26.24ZM57.7939 22.152V20.848H63.9619V22.152H57.7939ZM68.8725 26.24C68.2325 26.24 67.6965 26.1227 67.2645 25.888C66.8325 25.648 66.5045 25.3333 66.2805 24.944C66.0618 24.5493 65.9525 24.1173 65.9525 23.648C65.9525 23.2107 66.0298 22.8267 66.1845 22.496C66.3392 22.1653 66.5685 21.8853 66.8725 21.656C67.1765 21.4213 67.5498 21.232 67.9925 21.088C68.3765 20.976 68.8112 20.8773 69.2965 20.792C69.7818 20.7067 70.2912 20.6267 70.8245 20.552C71.3632 20.4773 71.8965 20.4027 72.4245 20.328L71.8165 20.664C71.8272 19.9867 71.6832 19.4853 71.3845 19.16C71.0912 18.8293 70.5845 18.664 69.8645 18.664C69.4112 18.664 68.9952 18.7707 68.6165 18.984C68.2378 19.192 67.9738 19.5387 67.8245 20.024L66.2645 19.544C66.4778 18.8027 66.8832 18.2133 67.4805 17.776C68.0832 17.3387 68.8832 17.12 69.8805 17.12C70.6538 17.12 71.3258 17.2533 71.8965 17.52C72.4725 17.7813 72.8938 18.1973 73.1605 18.768C73.2992 19.0507 73.3845 19.3493 73.4165 19.664C73.4485 19.9787 73.4645 20.3173 73.4645 20.68V26H71.9845V24.024L72.2725 24.28C71.9152 24.9413 71.4592 25.4347 70.9045 25.76C70.3552 26.08 69.6778 26.24 68.8725 26.24ZM69.1685 24.872C69.6432 24.872 70.0512 24.7893 70.3925 24.624C70.7338 24.4533 71.0085 24.2373 71.2165 23.976C71.4245 23.7147 71.5605 23.4427 71.6245 23.16C71.7152 22.904 71.7658 22.616 71.7765 22.296C71.7925 21.976 71.8005 21.72 71.8005 21.528L72.3445 21.728C71.8165 21.808 71.3365 21.88 70.9045 21.944C70.4725 22.008 70.0805 22.072 69.7285 22.136C69.3818 22.1947 69.0725 22.2667 68.8005 22.352C68.5712 22.432 68.3658 22.528 68.1845 22.64C68.0085 22.752 67.8672 22.888 67.7605 23.048C67.6592 23.208 67.6085 23.4027 67.6085 23.632C67.6085 23.856 67.6645 24.064 67.7765 24.256C67.8885 24.4427 68.0592 24.592 68.2885 24.704C68.5178 24.816 68.8112 24.872 69.1685 24.872ZM75.5419 26V17.36H77.0299V19.456L76.8219 19.184C76.9285 18.9067 77.0672 18.6533 77.2379 18.424C77.4085 18.1893 77.6059 17.9973 77.8299 17.848C78.0485 17.688 78.2912 17.5653 78.5579 17.48C78.8299 17.3893 79.1072 17.336 79.3899 17.32C79.6725 17.2987 79.9445 17.312 80.2059 17.36V18.928C79.9232 18.8533 79.6085 18.832 79.2619 18.864C78.9205 18.896 78.6059 19.0053 78.3179 19.192C78.0459 19.368 77.8299 19.5813 77.6699 19.832C77.5152 20.0827 77.4032 20.3627 77.3339 20.672C77.2645 20.976 77.2299 21.2987 77.2299 21.64V26H75.5419ZM87.3725 26.24C86.7325 26.24 86.1965 26.1227 85.7645 25.888C85.3325 25.648 85.0045 25.3333 84.7805 24.944C84.5618 24.5493 84.4525 24.1173 84.4525 23.648C84.4525 23.2107 84.5298 22.8267 84.6845 22.496C84.8392 22.1653 85.0685 21.8853 85.3725 21.656C85.6765 21.4213 86.0498 21.232 86.4925 21.088C86.8765 20.976 87.3112 20.8773 87.7965 20.792C88.2818 20.7067 88.7912 20.6267 89.3245 20.552C89.8632 20.4773 90.3965 20.4027 90.9245 20.328L90.3165 20.664C90.3272 19.9867 90.1832 19.4853 89.8845 19.16C89.5912 18.8293 89.0845 18.664 88.3645 18.664C87.9112 18.664 87.4952 18.7707 87.1165 18.984C86.7378 19.192 86.4738 19.5387 86.3245 20.024L84.7645 19.544C84.9778 18.8027 85.3832 18.2133 85.9805 17.776C86.5832 17.3387 87.3832 17.12 88.3805 17.12C89.1538 17.12 89.8258 17.2533 90.3965 17.52C90.9725 17.7813 91.3938 18.1973 91.6605 18.768C91.7992 19.0507 91.8845 19.3493 91.9165 19.664C91.9485 19.9787 91.9645 20.3173 91.9645 20.68V26H90.4845V24.024L90.7725 24.28C90.4152 24.9413 89.9592 25.4347 89.4045 25.76C88.8552 26.08 88.1778 26.24 87.3725 26.24ZM87.6685 24.872C88.1432 24.872 88.5512 24.7893 88.8925 24.624C89.2338 24.4533 89.5085 24.2373 89.7165 23.976C89.9245 23.7147 90.0605 23.4427 90.1245 23.16C90.2152 22.904 90.2658 22.616 90.2765 22.296C90.2925 21.976 90.3005 21.72 90.3005 21.528L90.8445 21.728C90.3165 21.808 89.8365 21.88 89.4045 21.944C88.9725 22.008 88.5805 22.072 88.2285 22.136C87.8818 22.1947 87.5725 22.2667 87.3005 22.352C87.0712 22.432 86.8658 22.528 86.6845 22.64C86.5085 22.752 86.3672 22.888 86.2605 23.048C86.1592 23.208 86.1085 23.4027 86.1085 23.632C86.1085 23.856 86.1645 24.064 86.2765 24.256C86.3885 24.4427 86.5592 24.592 86.7885 24.704C87.0178 24.816 87.3112 24.872 87.6685 24.872ZM94.2019 26V14.24H95.8739V26H94.2019ZM98.4363 26V14.24H100.108V26H98.4363Z" fill="#164293"/>
</svg>
