<svg width="102" height="40" viewBox="0 0 102 40" fill="none" xmlns="http://www.w3.org/2000/svg">
<rect x="0.5" y="0.5" width="101" height="39" rx="19.5" stroke="#164293"/>
<path d="M21.296 26.24C20.4693 26.24 19.7227 26.0987 19.056 25.816C18.3947 25.528 17.848 25.12 17.416 24.592C16.9893 24.0587 16.712 23.4267 16.584 22.696L18.328 22.432C18.504 23.136 18.872 23.6853 19.432 24.08C19.992 24.4693 20.6453 24.664 21.392 24.664C21.856 24.664 22.2827 24.592 22.672 24.448C23.0613 24.2987 23.3733 24.088 23.608 23.816C23.848 23.5387 23.968 23.208 23.968 22.824C23.968 22.616 23.9307 22.432 23.856 22.272C23.7867 22.112 23.688 21.9733 23.56 21.856C23.4373 21.7333 23.2853 21.6293 23.104 21.544C22.928 21.4533 22.7333 21.376 22.52 21.312L19.568 20.44C19.28 20.3547 18.9867 20.2453 18.688 20.112C18.3893 19.9733 18.1147 19.7947 17.864 19.576C17.6187 19.352 17.4187 19.0773 17.264 18.752C17.1093 18.4213 17.032 18.0213 17.032 17.552C17.032 16.8427 17.2133 16.2427 17.576 15.752C17.944 15.256 18.44 14.8827 19.064 14.632C19.688 14.376 20.3867 14.248 21.16 14.248C21.9387 14.2587 22.6347 14.3973 23.248 14.664C23.8667 14.9307 24.3787 15.3147 24.784 15.816C25.1947 16.312 25.4773 16.9147 25.632 17.624L23.84 17.928C23.76 17.496 23.5893 17.1253 23.328 16.816C23.0667 16.5013 22.7467 16.2613 22.368 16.096C21.9893 15.9253 21.5787 15.8373 21.136 15.832C20.7093 15.8213 20.3173 15.8853 19.96 16.024C19.608 16.1627 19.3253 16.3573 19.112 16.608C18.904 16.8587 18.8 17.1467 18.8 17.472C18.8 17.792 18.8933 18.0507 19.08 18.248C19.2667 18.4453 19.496 18.6027 19.768 18.72C20.0453 18.832 20.32 18.9253 20.592 19L22.72 19.6C22.9867 19.6747 23.288 19.776 23.624 19.904C23.9653 20.0267 24.2933 20.2 24.608 20.424C24.928 20.648 25.192 20.9467 25.4 21.32C25.608 21.688 25.712 22.152 25.712 22.712C25.712 23.2933 25.5947 23.8053 25.36 24.248C25.1253 24.6853 24.8027 25.0533 24.392 25.352C23.9867 25.6453 23.5173 25.8667 22.984 26.016C22.4507 26.1653 21.888 26.24 21.296 26.24ZM33.4809 26V21.752C33.4809 21.416 33.4515 21.072 33.3929 20.72C33.3395 20.3627 33.2329 20.032 33.0729 19.728C32.9182 19.424 32.6969 19.1787 32.4089 18.992C32.1262 18.8053 31.7555 18.712 31.2969 18.712C30.9982 18.712 30.7155 18.7627 30.4489 18.864C30.1822 18.96 29.9475 19.1173 29.7449 19.336C29.5475 19.5547 29.3902 19.8427 29.2729 20.2C29.1609 20.5573 29.1049 20.992 29.1049 21.504L28.0649 21.112C28.0649 20.328 28.2115 19.6373 28.5049 19.04C28.7982 18.4373 29.2195 17.968 29.7689 17.632C30.3182 17.296 30.9822 17.128 31.7609 17.128C32.3582 17.128 32.8595 17.224 33.2649 17.416C33.6702 17.608 33.9982 17.8613 34.2489 18.176C34.5049 18.4853 34.6995 18.824 34.8329 19.192C34.9662 19.56 35.0569 19.92 35.1049 20.272C35.1529 20.624 35.1769 20.9333 35.1769 21.2V26H33.4809ZM27.4089 26V14.48H28.9049V20.696H29.1049V26H27.4089ZM41.0126 26.24C40.1486 26.24 39.3993 26.0453 38.7646 25.656C38.13 25.2667 37.6393 24.7307 37.2926 24.048C36.9513 23.36 36.7806 22.568 36.7806 21.672C36.7806 20.7707 36.9566 19.9787 37.3086 19.296C37.6606 18.608 38.154 18.0747 38.7886 17.696C39.4233 17.312 40.1646 17.12 41.0126 17.12C41.8766 17.12 42.626 17.3147 43.2606 17.704C43.8953 18.0933 44.386 18.6293 44.7326 19.312C45.0793 19.9947 45.2526 20.7813 45.2526 21.672C45.2526 22.5733 45.0766 23.368 44.7246 24.056C44.378 24.7387 43.8873 25.2747 43.2526 25.664C42.618 26.048 41.8713 26.24 41.0126 26.24ZM41.0126 24.664C41.8393 24.664 42.4553 24.3867 42.8606 23.832C43.2713 23.272 43.4766 22.552 43.4766 21.672C43.4766 20.7707 43.2686 20.0507 42.8526 19.512C42.442 18.968 41.8286 18.696 41.0126 18.696C40.4526 18.696 39.9913 18.824 39.6286 19.08C39.266 19.3307 38.9966 19.68 38.8206 20.128C38.6446 20.5707 38.5566 21.0853 38.5566 21.672C38.5566 22.5787 38.7646 23.304 39.1806 23.848C39.5966 24.392 40.2073 24.664 41.0126 24.664ZM48.5381 26L45.8981 17.352L47.5541 17.36L49.3621 23.288L51.1861 17.36H52.6261L54.4501 23.288L56.2581 17.36H57.9061L55.2661 26H53.9221L51.9061 19.744L49.8821 26H48.5381ZM62.7019 26V14.24H64.3739V26H62.7019ZM70.5283 26.24C69.6643 26.24 68.9149 26.0453 68.2803 25.656C67.6456 25.2667 67.1549 24.7307 66.8083 24.048C66.4669 23.36 66.2963 22.568 66.2963 21.672C66.2963 20.7707 66.4723 19.9787 66.8243 19.296C67.1763 18.608 67.6696 18.0747 68.3043 17.696C68.9389 17.312 69.6803 17.12 70.5283 17.12C71.3923 17.12 72.1416 17.3147 72.7763 17.704C73.4109 18.0933 73.9016 18.6293 74.2483 19.312C74.5949 19.9947 74.7683 20.7813 74.7683 21.672C74.7683 22.5733 74.5923 23.368 74.2403 24.056C73.8936 24.7387 73.4029 25.2747 72.7683 25.664C72.1336 26.048 71.3869 26.24 70.5283 26.24ZM70.5283 24.664C71.3549 24.664 71.9709 24.3867 72.3763 23.832C72.7869 23.272 72.9923 22.552 72.9923 21.672C72.9923 20.7707 72.7843 20.0507 72.3683 19.512C71.9576 18.968 71.3443 18.696 70.5283 18.696C69.9683 18.696 69.5069 18.824 69.1443 19.08C68.7816 19.3307 68.5123 19.68 68.3363 20.128C68.1603 20.5707 68.0723 21.0853 68.0723 21.672C68.0723 22.5787 68.2803 23.304 68.6963 23.848C69.1123 24.392 69.7229 24.664 70.5283 24.664ZM80.0863 30.08C79.6223 30.08 79.1716 30.008 78.7343 29.864C78.3023 29.72 77.9076 29.5067 77.5503 29.224C77.1929 28.9467 76.8969 28.6027 76.6623 28.192L78.2063 27.408C78.3929 27.776 78.6596 28.0453 79.0063 28.216C79.3529 28.3867 79.7183 28.472 80.1023 28.472C80.5769 28.472 80.9823 28.3867 81.3183 28.216C81.6543 28.0507 81.9076 27.8 82.0783 27.464C82.2543 27.128 82.3396 26.712 82.3343 26.216V23.8H82.5343V17.36H84.0143V26.232C84.0143 26.4613 84.0063 26.68 83.9903 26.888C83.9743 27.096 83.9449 27.304 83.9023 27.512C83.7796 28.0933 83.5449 28.5733 83.1983 28.952C82.8569 29.3307 82.4196 29.6133 81.8863 29.8C81.3583 29.9867 80.7583 30.08 80.0863 30.08ZM79.9583 26.24C79.1529 26.24 78.4569 26.04 77.8703 25.64C77.2889 25.24 76.8383 24.696 76.5183 24.008C76.2036 23.3147 76.0463 22.536 76.0463 21.672C76.0463 20.8027 76.2063 20.0267 76.5263 19.344C76.8463 18.656 77.2996 18.1147 77.8863 17.72C78.4783 17.32 79.1796 17.12 79.9903 17.12C80.8063 17.12 81.4916 17.32 82.0463 17.72C82.6063 18.1147 83.0276 18.656 83.3103 19.344C83.5983 20.032 83.7423 20.808 83.7423 21.672C83.7423 22.536 83.5983 23.312 83.3103 24C83.0223 24.688 82.5983 25.2347 82.0383 25.64C81.4783 26.04 80.7849 26.24 79.9583 26.24ZM80.1903 24.728C80.7396 24.728 81.1876 24.5973 81.5343 24.336C81.8809 24.0747 82.1343 23.7147 82.2943 23.256C82.4543 22.7973 82.5343 22.2693 82.5343 21.672C82.5343 21.0747 82.4516 20.5467 82.2863 20.088C82.1263 19.6293 81.8756 19.272 81.5343 19.016C81.1983 18.76 80.7689 18.632 80.2463 18.632C79.6916 18.632 79.2356 18.768 78.8783 19.04C78.5209 19.312 78.2543 19.6773 78.0783 20.136C77.9076 20.5947 77.8223 21.1067 77.8223 21.672C77.8223 22.2427 77.9076 22.76 78.0783 23.224C78.2543 23.6827 78.5156 24.048 78.8623 24.32C79.2143 24.592 79.6569 24.728 80.1903 24.728Z" fill="#164293"/>
</svg>
