<svg width="13" height="13" viewBox="0 0 13 13" fill="none" xmlns="http://www.w3.org/2000/svg">
<path d="M12.0687 6.21259L7.19367 1.33759C7.13686 1.28071 7.06444 1.24197 6.98559 1.22627C6.90675 1.21057 6.82501 1.21861 6.75074 1.24939C6.67647 1.28016 6.613 1.33228 6.56836 1.39915C6.52373 1.46601 6.49994 1.54462 6.5 1.62501V3.65626H2.4375C2.22201 3.65626 2.01535 3.74187 1.86298 3.89424C1.7106 4.04661 1.625 4.25328 1.625 4.46876V8.53126C1.625 8.74675 1.7106 8.95342 1.86298 9.10579C2.01535 9.25816 2.22201 9.34376 2.4375 9.34376H6.5V11.375C6.49994 11.4554 6.52373 11.534 6.56836 11.6009C6.613 11.6677 6.67647 11.7199 6.75074 11.7506C6.82501 11.7814 6.90675 11.7895 6.98559 11.7738C7.06444 11.7581 7.13686 11.7193 7.19367 11.6624L12.0687 6.78744C12.1064 6.74971 12.1364 6.7049 12.1569 6.65558C12.1773 6.60627 12.1878 6.5534 12.1878 6.50001C12.1878 6.44663 12.1773 6.39376 12.1569 6.34445C12.1364 6.29513 12.1064 6.25032 12.0687 6.21259ZM7.3125 10.3944V8.93751C7.3125 8.82977 7.2697 8.72644 7.19351 8.65025C7.11733 8.57407 7.01399 8.53126 6.90625 8.53126H2.4375V4.46876H6.90625C7.01399 4.46876 7.11733 4.42596 7.19351 4.34978C7.2697 4.27359 7.3125 4.17026 7.3125 4.06251V2.6056L11.2069 6.50001L7.3125 10.3944Z" fill="black"/>
</svg>
