<svg width="116" height="40" viewBox="0 0 116 40" fill="none" xmlns="http://www.w3.org/2000/svg">
<rect x="0.5" y="0.5" width="115" height="39" rx="19.5" stroke="#164293"/>
<path d="M29.5 20C29.5002 21.9718 28.7239 23.8643 27.3391 25.268C25.9543 26.6716 24.0724 27.4735 22.1008 27.5H22C20.0846 27.5048 18.2408 26.7718 16.8516 25.4531C16.7919 25.3967 16.7439 25.3291 16.7104 25.2541C16.6769 25.1791 16.6585 25.0983 16.6562 25.0162C16.6539 24.9341 16.6678 24.8524 16.6971 24.7757C16.7264 24.699 16.7705 24.6288 16.827 24.5691C16.8834 24.5095 16.951 24.4615 17.026 24.428C17.1009 24.3945 17.1818 24.376 17.2638 24.3737C17.3459 24.3715 17.4277 24.3854 17.5044 24.4147C17.5811 24.444 17.6513 24.4881 17.7109 24.5445C18.6045 25.3872 19.7266 25.948 20.9371 26.1567C22.1475 26.3654 23.3926 26.2128 24.5168 25.718C25.641 25.2232 26.5945 24.4081 27.2582 23.3746C27.9218 22.341 28.2663 21.1348 28.2484 19.9067C28.2305 18.6785 27.8512 17.4828 27.1577 16.469C26.4642 15.4552 25.4874 14.6682 24.3493 14.2063C23.2112 13.7444 21.9622 13.6281 20.7583 13.872C19.5545 14.1158 18.4492 14.709 17.5805 15.5773C17.5741 15.5842 17.5673 15.5908 17.5602 15.5969L15.4836 17.5H17.625C17.7908 17.5 17.9497 17.5658 18.0669 17.683C18.1842 17.8003 18.25 17.9592 18.25 18.125C18.25 18.2907 18.1842 18.4497 18.0669 18.5669C17.9497 18.6841 17.7908 18.75 17.625 18.75H13.875C13.7092 18.75 13.5503 18.6841 13.4331 18.5669C13.3158 18.4497 13.25 18.2907 13.25 18.125V14.375C13.25 14.2092 13.3158 14.0503 13.4331 13.933C13.5503 13.8158 13.7092 13.75 13.875 13.75C14.0408 13.75 14.1997 13.8158 14.3169 13.933C14.4342 14.0503 14.5 14.2092 14.5 14.375V16.7031L16.707 14.6875C17.757 13.6416 19.0933 12.9302 20.5473 12.6431C22.0012 12.3561 23.5077 12.5062 24.8764 13.0746C26.2451 13.643 27.4147 14.6041 28.2376 15.8367C29.0605 17.0692 29.4998 18.518 29.5 20Z" fill="#164293"/>
<path d="M41.12 26V14.48H45.776C45.888 14.48 46.0267 14.4853 46.192 14.496C46.3573 14.5013 46.5147 14.5173 46.664 14.544C47.304 14.6453 47.8373 14.864 48.264 15.2C48.696 15.536 49.0187 15.96 49.232 16.472C49.4453 16.984 49.552 17.5493 49.552 18.168C49.552 19.0853 49.3173 19.8773 48.848 20.544C48.3787 21.2053 47.6747 21.6187 46.736 21.784L46.056 21.864H42.792V26H41.12ZM47.856 26L45.584 21.312L47.272 20.88L49.768 26H47.856ZM42.792 20.28H45.712C45.8187 20.28 45.936 20.2747 46.064 20.264C46.1973 20.2533 46.3227 20.2347 46.44 20.208C46.7813 20.128 47.056 19.9813 47.264 19.768C47.472 19.5493 47.6213 19.2987 47.712 19.016C47.8027 18.7333 47.848 18.4507 47.848 18.168C47.848 17.8853 47.8027 17.6053 47.712 17.328C47.6213 17.0453 47.472 16.7973 47.264 16.584C47.056 16.3653 46.7813 16.216 46.44 16.136C46.3227 16.104 46.1973 16.0827 46.064 16.072C45.936 16.0613 45.8187 16.056 45.712 16.056H42.792V20.28ZM55.3583 26.24C54.4996 26.24 53.7449 26.0533 53.0943 25.68C52.4489 25.3013 51.9449 24.776 51.5822 24.104C51.2249 23.4267 51.0463 22.6427 51.0463 21.752C51.0463 20.808 51.2223 19.9893 51.5743 19.296C51.9316 18.6027 52.4276 18.0667 53.0623 17.688C53.6969 17.3093 54.4356 17.12 55.2783 17.12C56.1583 17.12 56.9076 17.3253 57.5263 17.736C58.1449 18.1413 58.6063 18.72 58.9103 19.472C59.2196 20.224 59.3423 21.1173 59.2783 22.152H57.6063V21.544C57.5956 20.5413 57.4036 19.8 57.0303 19.32C56.6623 18.84 56.0996 18.6 55.3423 18.6C54.5049 18.6 53.8756 18.864 53.4543 19.392C53.0329 19.92 52.8223 20.6827 52.8223 21.68C52.8223 22.6293 53.0329 23.3653 53.4543 23.888C53.8756 24.4053 54.4836 24.664 55.2783 24.664C55.8009 24.664 56.2516 24.5467 56.6303 24.312C57.0143 24.072 57.3129 23.7307 57.5263 23.288L59.1663 23.808C58.8303 24.5813 58.3209 25.1813 57.6383 25.608C56.9556 26.0293 56.1956 26.24 55.3583 26.24ZM52.2783 22.152V20.848H58.4462V22.152H52.2783ZM61.8651 26V17.056C61.8651 16.8373 61.8731 16.6053 61.8891 16.36C61.9051 16.1093 61.9505 15.864 62.0251 15.624C62.1051 15.3787 62.2358 15.1547 62.4171 14.952C62.6358 14.712 62.8758 14.5413 63.1371 14.44C63.3985 14.3387 63.6571 14.28 63.9131 14.264C64.1745 14.248 64.4145 14.24 64.6331 14.24H65.7211V15.616H64.7131C64.3185 15.616 64.0225 15.7147 63.8251 15.912C63.6331 16.104 63.5371 16.3787 63.5371 16.736V26H61.8651ZM60.4331 18.704V17.36H65.7211V18.704H60.4331ZM66.995 26V17.36H68.483V19.456L68.275 19.184C68.3817 18.9067 68.5203 18.6533 68.691 18.424C68.8617 18.1893 69.059 17.9973 69.283 17.848C69.5017 17.688 69.7443 17.5653 70.011 17.48C70.283 17.3893 70.5603 17.336 70.843 17.32C71.1257 17.2987 71.3977 17.312 71.659 17.36V18.928C71.3763 18.8533 71.0617 18.832 70.715 18.864C70.3737 18.896 70.059 19.0053 69.771 19.192C69.499 19.368 69.283 19.5813 69.123 19.832C68.9683 20.0827 68.8563 20.3627 68.787 20.672C68.7177 20.976 68.683 21.2987 68.683 21.64V26H66.995ZM76.8583 26.24C75.9996 26.24 75.2449 26.0533 74.5943 25.68C73.9489 25.3013 73.4449 24.776 73.0822 24.104C72.7249 23.4267 72.5463 22.6427 72.5463 21.752C72.5463 20.808 72.7223 19.9893 73.0743 19.296C73.4316 18.6027 73.9276 18.0667 74.5623 17.688C75.1969 17.3093 75.9356 17.12 76.7783 17.12C77.6583 17.12 78.4076 17.3253 79.0263 17.736C79.6449 18.1413 80.1063 18.72 80.4103 19.472C80.7196 20.224 80.8423 21.1173 80.7783 22.152H79.1063V21.544C79.0956 20.5413 78.9036 19.8 78.5303 19.32C78.1623 18.84 77.5996 18.6 76.8423 18.6C76.0049 18.6 75.3756 18.864 74.9543 19.392C74.5329 19.92 74.3223 20.6827 74.3223 21.68C74.3223 22.6293 74.5329 23.3653 74.9543 23.888C75.3756 24.4053 75.9836 24.664 76.7783 24.664C77.3009 24.664 77.7516 24.5467 78.1303 24.312C78.5143 24.072 78.8129 23.7307 79.0263 23.288L80.6663 23.808C80.3303 24.5813 79.8209 25.1813 79.1383 25.608C78.4556 26.0293 77.6956 26.24 76.8583 26.24ZM73.7783 22.152V20.848H79.9462V22.152H73.7783ZM85.8771 26.232C84.8265 26.232 83.9705 26 83.3091 25.536C82.6478 25.072 82.2425 24.4187 82.0931 23.576L83.8051 23.312C83.9118 23.76 84.1571 24.1147 84.5411 24.376C84.9305 24.632 85.4131 24.76 85.9891 24.76C86.5118 24.76 86.9198 24.6533 87.2131 24.44C87.5118 24.2267 87.6611 23.9333 87.6611 23.56C87.6611 23.3413 87.6078 23.1653 87.5011 23.032C87.3998 22.8933 87.1838 22.7627 86.8531 22.64C86.5225 22.5173 86.0185 22.3653 85.3411 22.184C84.5998 21.992 84.0105 21.7867 83.5731 21.568C83.1411 21.344 82.8318 21.0853 82.6451 20.792C82.4638 20.4933 82.3731 20.1333 82.3731 19.712C82.3731 19.1893 82.5118 18.7333 82.7891 18.344C83.0665 17.9547 83.4558 17.6533 83.9571 17.44C84.4638 17.2267 85.0558 17.12 85.7331 17.12C86.3945 17.12 86.9838 17.224 87.5011 17.432C88.0185 17.64 88.4371 17.936 88.7571 18.32C89.0771 18.6987 89.2691 19.144 89.3331 19.656L87.6211 19.968C87.5625 19.552 87.3678 19.224 87.0371 18.984C86.7065 18.744 86.2771 18.6133 85.7491 18.592C85.2425 18.5707 84.8318 18.656 84.5171 18.848C84.2025 19.0347 84.0451 19.2933 84.0451 19.624C84.0451 19.816 84.1038 19.9787 84.2211 20.112C84.3438 20.2453 84.5785 20.3733 84.9251 20.496C85.2718 20.6187 85.7838 20.7653 86.4611 20.936C87.1865 21.1227 87.7625 21.3307 88.1891 21.56C88.6158 21.784 88.9198 22.0533 89.1011 22.368C89.2878 22.6773 89.3811 23.0533 89.3811 23.496C89.3811 24.3493 89.0691 25.0187 88.4451 25.504C87.8265 25.9893 86.9705 26.232 85.8771 26.232ZM97.2153 26V21.752C97.2153 21.416 97.1859 21.072 97.1273 20.72C97.0739 20.3627 96.9673 20.032 96.8073 19.728C96.6526 19.424 96.4313 19.1787 96.1433 18.992C95.8606 18.8053 95.4899 18.712 95.0312 18.712C94.7326 18.712 94.4499 18.7627 94.1833 18.864C93.9166 18.96 93.6819 19.1173 93.4793 19.336C93.2819 19.5547 93.1246 19.8427 93.0073 20.2C92.8953 20.5573 92.8393 20.992 92.8393 21.504L91.7993 21.112C91.7993 20.328 91.9459 19.6373 92.2393 19.04C92.5326 18.4373 92.9539 17.968 93.5033 17.632C94.0526 17.296 94.7166 17.128 95.4953 17.128C96.0926 17.128 96.5939 17.224 96.9993 17.416C97.4046 17.608 97.7326 17.8613 97.9833 18.176C98.2393 18.4853 98.4339 18.824 98.5673 19.192C98.7006 19.56 98.7913 19.92 98.8393 20.272C98.8873 20.624 98.9113 20.9333 98.9113 21.2V26H97.2153ZM91.1433 26V14.48H92.6393V20.696H92.8393V26H91.1433Z" fill="#164293"/>
</svg>
