<svg width="123" height="40" viewBox="0 0 123 40" fill="none" xmlns="http://www.w3.org/2000/svg">
<rect x="0.5" y="0.5" width="122" height="39" rx="19.5" fill="#164293"/>
<rect x="0.5" y="0.5" width="122" height="39" rx="19.5" stroke="#164293"/>
<path d="M21.296 26.24C20.4693 26.24 19.7227 26.0987 19.056 25.816C18.3947 25.528 17.848 25.12 17.416 24.592C16.9893 24.0587 16.712 23.4267 16.584 22.696L18.328 22.432C18.504 23.136 18.872 23.6853 19.432 24.08C19.992 24.4693 20.6453 24.664 21.392 24.664C21.856 24.664 22.2827 24.592 22.672 24.448C23.0613 24.2987 23.3733 24.088 23.608 23.816C23.848 23.5387 23.968 23.208 23.968 22.824C23.968 22.616 23.9307 22.432 23.856 22.272C23.7867 22.112 23.688 21.9733 23.56 21.856C23.4373 21.7333 23.2853 21.6293 23.104 21.544C22.928 21.4533 22.7333 21.376 22.52 21.312L19.568 20.44C19.28 20.3547 18.9867 20.2453 18.688 20.112C18.3893 19.9733 18.1147 19.7947 17.864 19.576C17.6187 19.352 17.4187 19.0773 17.264 18.752C17.1093 18.4213 17.032 18.0213 17.032 17.552C17.032 16.8427 17.2133 16.2427 17.576 15.752C17.944 15.256 18.44 14.8827 19.064 14.632C19.688 14.376 20.3867 14.248 21.16 14.248C21.9387 14.2587 22.6347 14.3973 23.248 14.664C23.8667 14.9307 24.3787 15.3147 24.784 15.816C25.1947 16.312 25.4773 16.9147 25.632 17.624L23.84 17.928C23.76 17.496 23.5893 17.1253 23.328 16.816C23.0667 16.5013 22.7467 16.2613 22.368 16.096C21.9893 15.9253 21.5787 15.8373 21.136 15.832C20.7093 15.8213 20.3173 15.8853 19.96 16.024C19.608 16.1627 19.3253 16.3573 19.112 16.608C18.904 16.8587 18.8 17.1467 18.8 17.472C18.8 17.792 18.8933 18.0507 19.08 18.248C19.2667 18.4453 19.496 18.6027 19.768 18.72C20.0453 18.832 20.32 18.9253 20.592 19L22.72 19.6C22.9867 19.6747 23.288 19.776 23.624 19.904C23.9653 20.0267 24.2933 20.2 24.608 20.424C24.928 20.648 25.192 20.9467 25.4 21.32C25.608 21.688 25.712 22.152 25.712 22.712C25.712 23.2933 25.5947 23.8053 25.36 24.248C25.1253 24.6853 24.8027 25.0533 24.392 25.352C23.9867 25.6453 23.5173 25.8667 22.984 26.016C22.4507 26.1653 21.888 26.24 21.296 26.24ZM32.3609 26C31.8169 26.1067 31.2835 26.152 30.7609 26.136C30.2382 26.12 29.7715 26.0187 29.3609 25.832C28.9502 25.6453 28.6409 25.352 28.4329 24.952C28.2462 24.5947 28.1449 24.232 28.1289 23.864C28.1182 23.4907 28.1129 23.0693 28.1129 22.6V14.96H29.7929V22.52C29.7929 22.8667 29.7955 23.168 29.8009 23.424C29.8115 23.68 29.8675 23.896 29.9689 24.072C30.1609 24.4027 30.4649 24.592 30.8809 24.64C31.3022 24.6827 31.7955 24.664 32.3609 24.584V26ZM26.4569 18.704V17.36H32.3609V18.704H26.4569ZM36.6225 26.24C35.9825 26.24 35.4465 26.1227 35.0145 25.888C34.5825 25.648 34.2545 25.3333 34.0305 24.944C33.8118 24.5493 33.7025 24.1173 33.7025 23.648C33.7025 23.2107 33.7798 22.8267 33.9345 22.496C34.0892 22.1653 34.3185 21.8853 34.6225 21.656C34.9265 21.4213 35.2998 21.232 35.7425 21.088C36.1265 20.976 36.5612 20.8773 37.0465 20.792C37.5318 20.7067 38.0412 20.6267 38.5745 20.552C39.1132 20.4773 39.6465 20.4027 40.1745 20.328L39.5665 20.664C39.5772 19.9867 39.4332 19.4853 39.1345 19.16C38.8412 18.8293 38.3345 18.664 37.6145 18.664C37.1612 18.664 36.7452 18.7707 36.3665 18.984C35.9878 19.192 35.7238 19.5387 35.5745 20.024L34.0145 19.544C34.2278 18.8027 34.6332 18.2133 35.2305 17.776C35.8332 17.3387 36.6332 17.12 37.6305 17.12C38.4038 17.12 39.0758 17.2533 39.6465 17.52C40.2225 17.7813 40.6438 18.1973 40.9105 18.768C41.0492 19.0507 41.1345 19.3493 41.1665 19.664C41.1985 19.9787 41.2145 20.3173 41.2145 20.68V26H39.7345V24.024L40.0225 24.28C39.6652 24.9413 39.2092 25.4347 38.6545 25.76C38.1052 26.08 37.4278 26.24 36.6225 26.24ZM36.9185 24.872C37.3932 24.872 37.8012 24.7893 38.1425 24.624C38.4838 24.4533 38.7585 24.2373 38.9665 23.976C39.1745 23.7147 39.3105 23.4427 39.3745 23.16C39.4652 22.904 39.5158 22.616 39.5265 22.296C39.5425 21.976 39.5505 21.72 39.5505 21.528L40.0945 21.728C39.5665 21.808 39.0865 21.88 38.6545 21.944C38.2225 22.008 37.8305 22.072 37.4785 22.136C37.1318 22.1947 36.8225 22.2667 36.5505 22.352C36.3212 22.432 36.1158 22.528 35.9345 22.64C35.7585 22.752 35.6172 22.888 35.5105 23.048C35.4092 23.208 35.3585 23.4027 35.3585 23.632C35.3585 23.856 35.4145 24.064 35.5265 24.256C35.6385 24.4427 35.8092 24.592 36.0385 24.704C36.2678 24.816 36.5612 24.872 36.9185 24.872ZM43.2919 26V17.36H44.7799V19.456L44.5719 19.184C44.6785 18.9067 44.8172 18.6533 44.9879 18.424C45.1585 18.1893 45.3559 17.9973 45.5799 17.848C45.7985 17.688 46.0412 17.5653 46.3079 17.48C46.5799 17.3893 46.8572 17.336 47.1399 17.32C47.4225 17.2987 47.6945 17.312 47.9559 17.36V18.928C47.6732 18.8533 47.3585 18.832 47.0119 18.864C46.6705 18.896 46.3559 19.0053 46.0679 19.192C45.7959 19.368 45.5799 19.5813 45.4199 19.832C45.2652 20.0827 45.1532 20.3627 45.0839 20.672C45.0145 20.976 44.9799 21.2987 44.9799 21.64V26H43.2919ZM54.4234 26C53.8794 26.1067 53.346 26.152 52.8234 26.136C52.3007 26.12 51.834 26.0187 51.4234 25.832C51.0127 25.6453 50.7034 25.352 50.4954 24.952C50.3087 24.5947 50.2074 24.232 50.1914 23.864C50.1807 23.4907 50.1754 23.0693 50.1754 22.6V14.96H51.8554V22.52C51.8554 22.8667 51.858 23.168 51.8634 23.424C51.874 23.68 51.93 23.896 52.0314 24.072C52.2234 24.4027 52.5274 24.592 52.9434 24.64C53.3647 24.6827 53.858 24.664 54.4234 24.584V26ZM48.5194 18.704V17.36H54.4234V18.704H48.5194ZM58.1681 29.84V28.256H58.6081C59.0508 28.256 59.3735 28.1493 59.5761 27.936C59.7841 27.7227 59.8881 27.3947 59.8881 26.952V17.36H61.5681V27.632C61.5681 28.336 61.3735 28.88 60.9841 29.264C60.6001 29.648 60.0481 29.84 59.3281 29.84H58.1681ZM59.8881 15.944V14.32H61.5681V15.944H59.8881ZM67.6064 26.24C66.7424 26.24 65.993 26.0453 65.3584 25.656C64.7237 25.2667 64.233 24.7307 63.8864 24.048C63.545 23.36 63.3744 22.568 63.3744 21.672C63.3744 20.7707 63.5504 19.9787 63.9024 19.296C64.2544 18.608 64.7477 18.0747 65.3824 17.696C66.017 17.312 66.7584 17.12 67.6064 17.12C68.4704 17.12 69.2197 17.3147 69.8544 17.704C70.489 18.0933 70.9797 18.6293 71.3264 19.312C71.673 19.9947 71.8464 20.7813 71.8464 21.672C71.8464 22.5733 71.6704 23.368 71.3184 24.056C70.9717 24.7387 70.481 25.2747 69.8464 25.664C69.2117 26.048 68.465 26.24 67.6064 26.24ZM67.6064 24.664C68.433 24.664 69.049 24.3867 69.4544 23.832C69.865 23.272 70.0704 22.552 70.0704 21.672C70.0704 20.7707 69.8624 20.0507 69.4464 19.512C69.0357 18.968 68.4224 18.696 67.6064 18.696C67.0464 18.696 66.585 18.824 66.2224 19.08C65.8597 19.3307 65.5904 19.68 65.4144 20.128C65.2384 20.5707 65.1504 21.0853 65.1504 21.672C65.1504 22.5787 65.3584 23.304 65.7744 23.848C66.1904 24.392 66.801 24.664 67.6064 24.664ZM77.6604 26.24C76.8337 26.24 76.1404 26.04 75.5804 25.64C75.0204 25.2347 74.5964 24.688 74.3084 24C74.0204 23.312 73.8764 22.536 73.8764 21.672C73.8764 20.808 74.0177 20.032 74.3004 19.344C74.5884 18.656 75.0097 18.1147 75.5644 17.72C76.1244 17.32 76.8124 17.12 77.6284 17.12C78.439 17.12 79.1377 17.32 79.7244 17.72C80.3164 18.1147 80.7724 18.656 81.0924 19.344C81.4124 20.0267 81.5724 20.8027 81.5724 21.672C81.5724 22.536 81.4124 23.3147 81.0924 24.008C80.7777 24.696 80.327 25.24 79.7404 25.64C79.159 26.04 78.4657 26.24 77.6604 26.24ZM73.5964 26V14.48H75.2764V19.784H75.0844V26H73.5964ZM77.4284 24.728C77.9617 24.728 78.4017 24.592 78.7484 24.32C79.1004 24.048 79.3617 23.6827 79.5324 23.224C79.7084 22.76 79.7964 22.2427 79.7964 21.672C79.7964 21.1067 79.7084 20.5947 79.5324 20.136C79.3617 19.6773 79.0977 19.312 78.7404 19.04C78.383 18.768 77.927 18.632 77.3724 18.632C76.8497 18.632 76.4177 18.76 76.0764 19.016C75.7404 19.272 75.4897 19.6293 75.3244 20.088C75.1644 20.5467 75.0844 21.0747 75.0844 21.672C75.0844 22.2693 75.1644 22.7973 75.3244 23.256C75.4844 23.7147 75.7377 24.0747 76.0844 24.336C76.431 24.5973 76.879 24.728 77.4284 24.728Z" fill="white"/>
<path d="M105.192 20.4423L98.9422 26.6923C98.8841 26.7504 98.8152 26.7964 98.7393 26.8278C98.6634 26.8593 98.5821 26.8755 98.5 26.8755C98.4179 26.8755 98.3366 26.8593 98.2607 26.8278C98.1848 26.7964 98.1159 26.7504 98.0578 26.6923C97.9997 26.6342 97.9537 26.5653 97.9223 26.4894C97.8908 26.4135 97.8746 26.3322 97.8746 26.2501C97.8746 26.168 97.8908 26.0867 97.9223 26.0108C97.9537 25.9349 97.9997 25.866 98.0578 25.8079L103.866 20.0001L98.0578 14.1923C97.9405 14.075 97.8746 13.916 97.8746 13.7501C97.8746 13.5843 97.9405 13.4252 98.0578 13.3079C98.1751 13.1906 98.3341 13.1248 98.5 13.1248C98.6658 13.1248 98.8249 13.1906 98.9422 13.3079L105.192 19.5579C105.25 19.616 105.296 19.6849 105.328 19.7608C105.359 19.8366 105.375 19.918 105.375 20.0001C105.375 20.0822 105.359 20.1636 105.328 20.2394C105.296 20.3153 105.25 20.3842 105.192 20.4423Z" fill="white"/>
</svg>
