<svg width="40" height="40" viewBox="0 0 40 40" fill="none" xmlns="http://www.w3.org/2000/svg">
<rect x="0.5" y="0.5" width="39" height="39" rx="19.5" stroke="#164293"/>
<path d="M26.875 13.75H13.125C12.9592 13.75 12.8003 13.8158 12.6831 13.9331C12.5658 14.0503 12.5 14.2092 12.5 14.375C12.5 14.5408 12.5658 14.6997 12.6831 14.8169C12.8003 14.9342 12.9592 15 13.125 15H13.75V26.25C13.75 26.5815 13.8817 26.8995 14.1161 27.1339C14.3505 27.3683 14.6685 27.5 15 27.5H25C25.3315 27.5 25.6495 27.3683 25.8839 27.1339C26.1183 26.8995 26.25 26.5815 26.25 26.25V15H26.875C27.0408 15 27.1997 14.9342 27.3169 14.8169C27.4342 14.6997 27.5 14.5408 27.5 14.375C27.5 14.2092 27.4342 14.0503 27.3169 13.9331C27.1997 13.8158 27.0408 13.75 26.875 13.75ZM25 26.25H15V15H25V26.25ZM16.25 11.875C16.25 11.7092 16.3158 11.5503 16.4331 11.4331C16.5503 11.3158 16.7092 11.25 16.875 11.25H23.125C23.2908 11.25 23.4497 11.3158 23.5669 11.4331C23.6842 11.5503 23.75 11.7092 23.75 11.875C23.75 12.0408 23.6842 12.1997 23.5669 12.3169C23.4497 12.4342 23.2908 12.5 23.125 12.5H16.875C16.7092 12.5 16.5503 12.4342 16.4331 12.3169C16.3158 12.1997 16.25 12.0408 16.25 11.875Z" fill="#164293"/>
</svg>
