<svg width="147" height="40" viewBox="0 0 147 40" fill="none" xmlns="http://www.w3.org/2000/svg">
<rect x="0.5" y="0.5" width="146" height="39" rx="19.5" stroke="#164293"/>
<path d="M21.928 26.24C20.776 26.24 19.7947 25.9893 18.984 25.488C18.1733 24.9813 17.552 24.2773 17.12 23.376C16.6933 22.4747 16.48 21.4293 16.48 20.24C16.48 19.0507 16.6933 18.0053 17.12 17.104C17.552 16.2027 18.1733 15.5013 18.984 15C19.7947 14.4933 20.776 14.24 21.928 14.24C23.256 14.24 24.3547 14.576 25.224 15.248C26.0987 15.92 26.7067 16.824 27.048 17.96L25.352 18.416C25.128 17.6107 24.728 16.9787 24.152 16.52C23.5813 16.0613 22.84 15.832 21.928 15.832C21.112 15.832 20.432 16.016 19.888 16.384C19.344 16.752 18.9333 17.2667 18.656 17.928C18.384 18.5893 18.248 19.36 18.248 20.24C18.2427 21.12 18.376 21.8907 18.648 22.552C18.9253 23.2133 19.336 23.728 19.88 24.096C20.4293 24.464 21.112 24.648 21.928 24.648C22.84 24.648 23.5813 24.4187 24.152 23.96C24.728 23.496 25.128 22.864 25.352 22.064L27.048 22.52C26.7067 23.656 26.0987 24.56 25.224 25.232C24.3547 25.904 23.256 26.24 21.928 26.24ZM28.8075 26V17.36H30.2955V19.456L30.0875 19.184C30.1942 18.9067 30.3328 18.6533 30.5035 18.424C30.6742 18.1893 30.8715 17.9973 31.0955 17.848C31.3142 17.688 31.5568 17.5653 31.8235 17.48C32.0955 17.3893 32.3728 17.336 32.6555 17.32C32.9382 17.2987 33.2102 17.312 33.4715 17.36V18.928C33.1888 18.8533 32.8742 18.832 32.5275 18.864C32.1862 18.896 31.8715 19.0053 31.5835 19.192C31.3115 19.368 31.0955 19.5813 30.9355 19.832C30.7808 20.0827 30.6688 20.3627 30.5995 20.672C30.5302 20.976 30.4955 21.2987 30.4955 21.64V26H28.8075ZM38.6708 26.24C37.8121 26.24 37.0574 26.0533 36.4068 25.68C35.7614 25.3013 35.2574 24.776 34.8947 24.104C34.5374 23.4267 34.3588 22.6427 34.3588 21.752C34.3588 20.808 34.5348 19.9893 34.8868 19.296C35.2441 18.6027 35.7401 18.0667 36.3748 17.688C37.0094 17.3093 37.7481 17.12 38.5908 17.12C39.4708 17.12 40.2201 17.3253 40.8388 17.736C41.4574 18.1413 41.9188 18.72 42.2228 19.472C42.5321 20.224 42.6548 21.1173 42.5908 22.152H40.9188V21.544C40.9081 20.5413 40.7161 19.8 40.3428 19.32C39.9748 18.84 39.4121 18.6 38.6548 18.6C37.8174 18.6 37.1881 18.864 36.7668 19.392C36.3454 19.92 36.1348 20.6827 36.1348 21.68C36.1348 22.6293 36.3454 23.3653 36.7668 23.888C37.1881 24.4053 37.7961 24.664 38.5908 24.664C39.1134 24.664 39.5641 24.5467 39.9428 24.312C40.3268 24.072 40.6254 23.7307 40.8388 23.288L42.4788 23.808C42.1428 24.5813 41.6334 25.1813 40.9508 25.608C40.2681 26.0293 39.5081 26.24 38.6708 26.24ZM35.5908 22.152V20.848H41.7587V22.152H35.5908ZM46.6694 26.24C46.0294 26.24 45.4934 26.1227 45.0614 25.888C44.6294 25.648 44.3014 25.3333 44.0774 24.944C43.8587 24.5493 43.7494 24.1173 43.7494 23.648C43.7494 23.2107 43.8267 22.8267 43.9814 22.496C44.136 22.1653 44.3654 21.8853 44.6694 21.656C44.9734 21.4213 45.3467 21.232 45.7894 21.088C46.1734 20.976 46.608 20.8773 47.0934 20.792C47.5787 20.7067 48.088 20.6267 48.6214 20.552C49.16 20.4773 49.6934 20.4027 50.2214 20.328L49.6134 20.664C49.624 19.9867 49.48 19.4853 49.1814 19.16C48.888 18.8293 48.3814 18.664 47.6614 18.664C47.208 18.664 46.792 18.7707 46.4134 18.984C46.0347 19.192 45.7707 19.5387 45.6214 20.024L44.0614 19.544C44.2747 18.8027 44.68 18.2133 45.2774 17.776C45.88 17.3387 46.68 17.12 47.6774 17.12C48.4507 17.12 49.1227 17.2533 49.6934 17.52C50.2694 17.7813 50.6907 18.1973 50.9574 18.768C51.096 19.0507 51.1814 19.3493 51.2134 19.664C51.2454 19.9787 51.2614 20.3173 51.2614 20.68V26H49.7814V24.024L50.0694 24.28C49.712 24.9413 49.256 25.4347 48.7014 25.76C48.152 26.08 47.4747 26.24 46.6694 26.24ZM46.9654 24.872C47.44 24.872 47.848 24.7893 48.1894 24.624C48.5307 24.4533 48.8054 24.2373 49.0134 23.976C49.2214 23.7147 49.3574 23.4427 49.4214 23.16C49.512 22.904 49.5627 22.616 49.5734 22.296C49.5894 21.976 49.5974 21.72 49.5974 21.528L50.1414 21.728C49.6134 21.808 49.1334 21.88 48.7014 21.944C48.2694 22.008 47.8774 22.072 47.5254 22.136C47.1787 22.1947 46.8694 22.2667 46.5974 22.352C46.368 22.432 46.1627 22.528 45.9814 22.64C45.8054 22.752 45.664 22.888 45.5574 23.048C45.456 23.208 45.4054 23.4027 45.4054 23.632C45.4054 23.856 45.4614 24.064 45.5734 24.256C45.6854 24.4427 45.856 24.592 46.0854 24.704C46.3147 24.816 46.608 24.872 46.9654 24.872ZM58.2828 26C57.7388 26.1067 57.2054 26.152 56.6828 26.136C56.1601 26.12 55.6934 26.0187 55.2828 25.832C54.8721 25.6453 54.5628 25.352 54.3548 24.952C54.1681 24.5947 54.0668 24.232 54.0508 23.864C54.0401 23.4907 54.0348 23.0693 54.0348 22.6V14.96H55.7148V22.52C55.7148 22.8667 55.7174 23.168 55.7228 23.424C55.7334 23.68 55.7894 23.896 55.8908 24.072C56.0828 24.4027 56.3868 24.592 56.8028 24.64C57.2241 24.6827 57.7174 24.664 58.2828 24.584V26ZM52.3788 18.704V17.36H58.2828V18.704H52.3788ZM63.5458 26.24C62.6871 26.24 61.9324 26.0533 61.2818 25.68C60.6364 25.3013 60.1324 24.776 59.7697 24.104C59.4124 23.4267 59.2338 22.6427 59.2338 21.752C59.2338 20.808 59.4098 19.9893 59.7618 19.296C60.1191 18.6027 60.6151 18.0667 61.2498 17.688C61.8844 17.3093 62.6231 17.12 63.4658 17.12C64.3458 17.12 65.0951 17.3253 65.7138 17.736C66.3324 18.1413 66.7938 18.72 67.0978 19.472C67.4071 20.224 67.5298 21.1173 67.4658 22.152H65.7938V21.544C65.7831 20.5413 65.5911 19.8 65.2178 19.32C64.8498 18.84 64.2871 18.6 63.5298 18.6C62.6924 18.6 62.0631 18.864 61.6418 19.392C61.2204 19.92 61.0098 20.6827 61.0098 21.68C61.0098 22.6293 61.2204 23.3653 61.6418 23.888C62.0631 24.4053 62.6711 24.664 63.4658 24.664C63.9884 24.664 64.4391 24.5467 64.8178 24.312C65.2018 24.072 65.5004 23.7307 65.7138 23.288L67.3538 23.808C67.0178 24.5813 66.5084 25.1813 65.8258 25.608C65.1431 26.0293 64.3831 26.24 63.5458 26.24ZM60.4658 22.152V20.848H66.6337V22.152H60.4658ZM78.5278 26V21.752C78.5278 21.416 78.4984 21.072 78.4398 20.72C78.3864 20.3627 78.2798 20.032 78.1198 19.728C77.9651 19.424 77.7438 19.1787 77.4558 18.992C77.1731 18.8053 76.8024 18.712 76.3438 18.712C76.0451 18.712 75.7624 18.7627 75.4958 18.864C75.2291 18.96 74.9944 19.1173 74.7918 19.336C74.5944 19.5547 74.4371 19.8427 74.3198 20.2C74.2078 20.5573 74.1518 20.992 74.1518 21.504L73.1118 21.112C73.1118 20.328 73.2584 19.6373 73.5518 19.04C73.8451 18.4373 74.2664 17.968 74.8158 17.632C75.3651 17.296 76.0291 17.128 76.8078 17.128C77.4051 17.128 77.9064 17.224 78.3118 17.416C78.7171 17.608 79.0451 17.8613 79.2958 18.176C79.5518 18.4853 79.7464 18.824 79.8798 19.192C80.0131 19.56 80.1038 19.92 80.1518 20.272C80.1998 20.624 80.2238 20.9333 80.2238 21.2V26H78.5278ZM72.4558 26V17.36H73.9518V19.856H74.1518V26H72.4558ZM86.0301 26.24C85.1715 26.24 84.4168 26.0533 83.7661 25.68C83.1208 25.3013 82.6168 24.776 82.2541 24.104C81.8968 23.4267 81.7181 22.6427 81.7181 21.752C81.7181 20.808 81.8941 19.9893 82.2461 19.296C82.6035 18.6027 83.0995 18.0667 83.7341 17.688C84.3688 17.3093 85.1075 17.12 85.9501 17.12C86.8301 17.12 87.5795 17.3253 88.1981 17.736C88.8168 18.1413 89.2781 18.72 89.5821 19.472C89.8915 20.224 90.0141 21.1173 89.9501 22.152H88.2781V21.544C88.2675 20.5413 88.0755 19.8 87.7021 19.32C87.3341 18.84 86.7715 18.6 86.0141 18.6C85.1768 18.6 84.5475 18.864 84.1261 19.392C83.7048 19.92 83.4941 20.6827 83.4941 21.68C83.4941 22.6293 83.7048 23.3653 84.1261 23.888C84.5475 24.4053 85.1555 24.664 85.9501 24.664C86.4728 24.664 86.9235 24.5467 87.3021 24.312C87.6861 24.072 87.9848 23.7307 88.1981 23.288L89.8381 23.808C89.5021 24.5813 88.9928 25.1813 88.3101 25.608C87.6275 26.0293 86.8675 26.24 86.0301 26.24ZM82.9501 22.152V20.848H89.1181V22.152H82.9501ZM93.2725 26L90.6325 17.352L92.2885 17.36L94.0965 23.288L95.9205 17.36H97.3605L99.1845 23.288L100.993 17.36H102.641L100.001 26H98.6565L96.6405 19.744L94.6165 26H93.2725ZM105.996 29.84V28.256H106.436C106.879 28.256 107.202 28.1493 107.404 27.936C107.612 27.7227 107.716 27.3947 107.716 26.952V17.36H109.396V27.632C109.396 28.336 109.202 28.88 108.812 29.264C108.428 29.648 107.876 29.84 107.156 29.84H105.996ZM107.716 15.944V14.32H109.396V15.944H107.716ZM115.435 26.24C114.571 26.24 113.821 26.0453 113.187 25.656C112.552 25.2667 112.061 24.7307 111.715 24.048C111.373 23.36 111.203 22.568 111.203 21.672C111.203 20.7707 111.379 19.9787 111.731 19.296C112.083 18.608 112.576 18.0747 113.211 17.696C113.845 17.312 114.587 17.12 115.435 17.12C116.299 17.12 117.048 17.3147 117.683 17.704C118.317 18.0933 118.808 18.6293 119.155 19.312C119.501 19.9947 119.675 20.7813 119.675 21.672C119.675 22.5733 119.499 23.368 119.147 24.056C118.8 24.7387 118.309 25.2747 117.675 25.664C117.04 26.048 116.293 26.24 115.435 26.24ZM115.435 24.664C116.261 24.664 116.877 24.3867 117.283 23.832C117.693 23.272 117.899 22.552 117.899 21.672C117.899 20.7707 117.691 20.0507 117.275 19.512C116.864 18.968 116.251 18.696 115.435 18.696C114.875 18.696 114.413 18.824 114.051 19.08C113.688 19.3307 113.419 19.68 113.243 20.128C113.067 20.5707 112.979 21.0853 112.979 21.672C112.979 22.5787 113.187 23.304 113.603 23.848C114.019 24.392 114.629 24.664 115.435 24.664ZM125.489 26.24C124.662 26.24 123.969 26.04 123.409 25.64C122.849 25.2347 122.425 24.688 122.137 24C121.849 23.312 121.705 22.536 121.705 21.672C121.705 20.808 121.846 20.032 122.129 19.344C122.417 18.656 122.838 18.1147 123.393 17.72C123.953 17.32 124.641 17.12 125.457 17.12C126.267 17.12 126.966 17.32 127.553 17.72C128.145 18.1147 128.601 18.656 128.921 19.344C129.241 20.0267 129.401 20.8027 129.401 21.672C129.401 22.536 129.241 23.3147 128.921 24.008C128.606 24.696 128.155 25.24 127.569 25.64C126.987 26.04 126.294 26.24 125.489 26.24ZM121.425 26V14.48H123.105V19.784H122.913V26H121.425ZM125.257 24.728C125.79 24.728 126.23 24.592 126.577 24.32C126.929 24.048 127.19 23.6827 127.361 23.224C127.537 22.76 127.625 22.2427 127.625 21.672C127.625 21.1067 127.537 20.5947 127.361 20.136C127.19 19.6773 126.926 19.312 126.569 19.04C126.211 18.768 125.755 18.632 125.201 18.632C124.678 18.632 124.246 18.76 123.905 19.016C123.569 19.272 123.318 19.6293 123.153 20.088C122.993 20.5467 122.913 21.0747 122.913 21.672C122.913 22.2693 122.993 22.7973 123.153 23.256C123.313 23.7147 123.566 24.0747 123.913 24.336C124.259 24.5973 124.707 24.728 125.257 24.728Z" fill="#164293"/>
</svg>
