<svg width="122" height="40" viewBox="0 0 122 40" fill="none" xmlns="http://www.w3.org/2000/svg">
<rect x="0.5" y="0.5" width="121" height="39" rx="19.5" fill="#164293"/>
<rect x="0.5" y="0.5" width="121" height="39" rx="19.5" stroke="#164293"/>
<path d="M29.5 20C29.5 20.1658 29.4342 20.3247 29.3169 20.4419C29.1997 20.5592 29.0408 20.625 28.875 20.625H22.625V26.875C22.625 27.0408 22.5592 27.1997 22.4419 27.3169C22.3247 27.4342 22.1658 27.5 22 27.5C21.8342 27.5 21.6753 27.4342 21.5581 27.3169C21.4408 27.1997 21.375 27.0408 21.375 26.875V20.625H15.125C14.9592 20.625 14.8003 20.5592 14.6831 20.4419C14.5658 20.3247 14.5 20.1658 14.5 20C14.5 19.8342 14.5658 19.6753 14.6831 19.5581C14.8003 19.4408 14.9592 19.375 15.125 19.375H21.375V13.125C21.375 12.9592 21.4408 12.8003 21.5581 12.6831C21.6753 12.5658 21.8342 12.5 22 12.5C22.1658 12.5 22.3247 12.5658 22.4419 12.6831C22.5592 12.8003 22.625 12.9592 22.625 13.125V19.375H28.875C29.0408 19.375 29.1997 19.4408 29.3169 19.5581C29.4342 19.6753 29.5 19.8342 29.5 20Z" fill="white"/>
<path d="M40.32 26L44.064 14.48H46.472L50.216 26H48.48L45.032 15.488H45.464L42.056 26H40.32ZM42.264 23.4V21.832H48.28V23.4H42.264ZM55.0833 26.24C54.2779 26.24 53.5819 26.04 52.9953 25.64C52.4139 25.24 51.9633 24.696 51.6433 24.008C51.3286 23.3147 51.1713 22.536 51.1713 21.672C51.1713 20.8027 51.3313 20.0267 51.6513 19.344C51.9713 18.656 52.4246 18.1147 53.0113 17.72C53.6033 17.32 54.3046 17.12 55.1153 17.12C55.9313 17.12 56.6166 17.32 57.1713 17.72C57.7313 18.1147 58.1526 18.656 58.4353 19.344C58.7233 20.032 58.8673 20.808 58.8673 21.672C58.8673 22.536 58.7233 23.312 58.4353 24C58.1473 24.688 57.7233 25.2347 57.1633 25.64C56.6033 26.04 55.9099 26.24 55.0833 26.24ZM55.3153 24.728C55.8646 24.728 56.3126 24.5973 56.6593 24.336C57.0059 24.0747 57.2593 23.7147 57.4193 23.256C57.5793 22.7973 57.6593 22.2693 57.6593 21.672C57.6593 21.0747 57.5766 20.5467 57.4113 20.088C57.2513 19.6293 57.0006 19.272 56.6593 19.016C56.3233 18.76 55.8939 18.632 55.3713 18.632C54.8166 18.632 54.3606 18.768 54.0033 19.04C53.6459 19.312 53.3793 19.6773 53.2033 20.136C53.0326 20.5947 52.9473 21.1067 52.9473 21.672C52.9473 22.2427 53.0326 22.76 53.2033 23.224C53.3793 23.6827 53.6406 24.048 53.9873 24.32C54.3393 24.592 54.7819 24.728 55.3153 24.728ZM57.6593 26V19.784H57.4673V14.48H59.1473V26H57.6593ZM64.8176 26.24C64.0123 26.24 63.3163 26.04 62.7296 25.64C62.1483 25.24 61.6976 24.696 61.3776 24.008C61.063 23.3147 60.9056 22.536 60.9056 21.672C60.9056 20.8027 61.0656 20.0267 61.3856 19.344C61.7056 18.656 62.159 18.1147 62.7456 17.72C63.3376 17.32 64.039 17.12 64.8496 17.12C65.6656 17.12 66.351 17.32 66.9056 17.72C67.4656 18.1147 67.887 18.656 68.1696 19.344C68.4576 20.032 68.6016 20.808 68.6016 21.672C68.6016 22.536 68.4576 23.312 68.1696 24C67.8816 24.688 67.4576 25.2347 66.8976 25.64C66.3376 26.04 65.6443 26.24 64.8176 26.24ZM65.0496 24.728C65.599 24.728 66.047 24.5973 66.3936 24.336C66.7403 24.0747 66.9936 23.7147 67.1536 23.256C67.3136 22.7973 67.3936 22.2693 67.3936 21.672C67.3936 21.0747 67.311 20.5467 67.1456 20.088C66.9856 19.6293 66.735 19.272 66.3936 19.016C66.0576 18.76 65.6283 18.632 65.1056 18.632C64.551 18.632 64.095 18.768 63.7376 19.04C63.3803 19.312 63.1136 19.6773 62.9376 20.136C62.767 20.5947 62.6816 21.1067 62.6816 21.672C62.6816 22.2427 62.767 22.76 62.9376 23.224C63.1136 23.6827 63.375 24.048 63.7216 24.32C64.0736 24.592 64.5163 24.728 65.0496 24.728ZM67.3936 26V19.784H67.2016V14.48H68.8816V26H67.3936ZM75.1151 26V17.056C75.1151 16.8373 75.1231 16.6053 75.1391 16.36C75.1551 16.1093 75.2005 15.864 75.2751 15.624C75.3551 15.3787 75.4858 15.1547 75.6671 14.952C75.8858 14.712 76.1258 14.5413 76.3871 14.44C76.6485 14.3387 76.9071 14.28 77.1631 14.264C77.4245 14.248 77.6645 14.24 77.8831 14.24H78.9711V15.616H77.9631C77.5685 15.616 77.2725 15.7147 77.0751 15.912C76.8831 16.104 76.7871 16.3787 76.7871 16.736V26H75.1151ZM73.6831 18.704V17.36H78.9711V18.704H73.6831ZM80.6511 15.944V14.32H82.3231V15.944H80.6511ZM80.6511 26V17.36H82.3231V26H80.6511ZM84.8894 26V14.24H86.5614V26H84.8894ZM92.7958 26.24C91.9371 26.24 91.1824 26.0533 90.5318 25.68C89.8864 25.3013 89.3824 24.776 89.0197 24.104C88.6624 23.4267 88.4838 22.6427 88.4838 21.752C88.4838 20.808 88.6598 19.9893 89.0118 19.296C89.3691 18.6027 89.8651 18.0667 90.4998 17.688C91.1344 17.3093 91.8731 17.12 92.7158 17.12C93.5958 17.12 94.3451 17.3253 94.9638 17.736C95.5824 18.1413 96.0438 18.72 96.3478 19.472C96.6571 20.224 96.7798 21.1173 96.7158 22.152H95.0438V21.544C95.0331 20.5413 94.8411 19.8 94.4678 19.32C94.0998 18.84 93.5371 18.6 92.7798 18.6C91.9424 18.6 91.3131 18.864 90.8918 19.392C90.4704 19.92 90.2598 20.6827 90.2598 21.68C90.2598 22.6293 90.4704 23.3653 90.8918 23.888C91.3131 24.4053 91.9211 24.664 92.7158 24.664C93.2384 24.664 93.6891 24.5467 94.0678 24.312C94.4518 24.072 94.7504 23.7307 94.9638 23.288L96.6038 23.808C96.2678 24.5813 95.7584 25.1813 95.0758 25.608C94.3931 26.0293 93.6331 26.24 92.7958 26.24ZM89.7158 22.152V20.848H95.8837V22.152H89.7158ZM101.815 26.232C100.764 26.232 99.908 26 99.2466 25.536C98.5853 25.072 98.18 24.4187 98.0306 23.576L99.7426 23.312C99.8493 23.76 100.095 24.1147 100.479 24.376C100.868 24.632 101.351 24.76 101.927 24.76C102.449 24.76 102.857 24.6533 103.151 24.44C103.449 24.2267 103.599 23.9333 103.599 23.56C103.599 23.3413 103.545 23.1653 103.439 23.032C103.337 22.8933 103.121 22.7627 102.791 22.64C102.46 22.5173 101.956 22.3653 101.279 22.184C100.537 21.992 99.948 21.7867 99.5106 21.568C99.0786 21.344 98.7693 21.0853 98.5826 20.792C98.4013 20.4933 98.3106 20.1333 98.3106 19.712C98.3106 19.1893 98.4493 18.7333 98.7266 18.344C99.004 17.9547 99.3933 17.6533 99.8946 17.44C100.401 17.2267 100.993 17.12 101.671 17.12C102.332 17.12 102.921 17.224 103.439 17.432C103.956 17.64 104.375 17.936 104.695 18.32C105.015 18.6987 105.207 19.144 105.271 19.656L103.559 19.968C103.5 19.552 103.305 19.224 102.975 18.984C102.644 18.744 102.215 18.6133 101.687 18.592C101.18 18.5707 100.769 18.656 100.455 18.848C100.14 19.0347 99.9826 19.2933 99.9826 19.624C99.9826 19.816 100.041 19.9787 100.159 20.112C100.281 20.2453 100.516 20.3733 100.863 20.496C101.209 20.6187 101.721 20.7653 102.399 20.936C103.124 21.1227 103.7 21.3307 104.127 21.56C104.553 21.784 104.857 22.0533 105.039 22.368C105.225 22.6773 105.319 23.0533 105.319 23.496C105.319 24.3493 105.007 25.0187 104.383 25.504C103.764 25.9893 102.908 26.232 101.815 26.232Z" fill="white"/>
</svg>
