<svg xmlns="http://www.w3.org/2000/svg" viewBox="0 0 32.5 28.3">
  <g id="Ebene_2" data-name="Ebene 2">
    <g id="Ebene_1-2" data-name="Ebene 1">
      <path d="M32.35,27,17.05.4a1.23,1.23,0,0,0-.8-.4,1.23,1.23,0,0,0-.8.4L.15,27a.75.75,0,0,0,0,.9.81.81,0,0,0,.8.4h30.7a.84.84,0,0,0,.7-.4A.75.75,0,0,0,32.35,27Z"/>
      <path d="M2.45,26.6,16.25,2.7l13.9,23.9Z" style="fill: #ffd200"/>
      <path d="M18.35,23.5a2.05,2.05,0,1,1-2.1-2h0A2,2,0,0,1,18.35,23.5Z"/>
      <path d="M16.25,9.1a2,2,0,0,0-2,2v.1l.6,7.2c.1.9.2,1.5.6,1.7a2.35,2.35,0,0,0,.8.2,1.88,1.88,0,0,0,.8-.2c.4-.3.5-.8.6-1.7l.6-7.2a2,2,0,0,0-2-2.1Z"/>
    </g>
  </g>
</svg>
