<svg width="89" height="40" viewBox="0 0 89 40" fill="none" xmlns="http://www.w3.org/2000/svg">
<rect x="0.5" y="0.5" width="88" height="39" rx="19.5" stroke="#164293"/>
<path d="M30.75 16.875V21.875C30.75 22.0408 30.6842 22.1998 30.5669 22.317C30.4497 22.4342 30.2908 22.5 30.125 22.5H25.125C24.9592 22.5 24.8003 22.4342 24.6831 22.317C24.5658 22.1998 24.5 22.0408 24.5 21.875C24.5 21.7093 24.5658 21.5503 24.6831 21.4331C24.8003 21.3159 24.9592 21.25 25.125 21.25H28.6094L26.8625 19.5149C25.9011 18.5531 24.6761 17.898 23.3424 17.6324C22.0087 17.3669 20.6263 17.5028 19.3698 18.0231C18.1134 18.5433 17.0395 19.4245 16.2839 20.5552C15.5283 21.6858 15.125 23.0151 15.125 24.375C15.125 24.5408 15.0592 24.6998 14.9419 24.817C14.8247 24.9342 14.6658 25 14.5 25C14.3342 25 14.1753 24.9342 14.0581 24.817C13.9408 24.6998 13.875 24.5408 13.875 24.375C13.875 22.768 14.3515 21.1971 15.2443 19.8609C16.137 18.5248 17.406 17.4833 18.8907 16.8684C20.3753 16.2534 22.009 16.0925 23.5851 16.406C25.1613 16.7195 26.609 17.4934 27.7453 18.6297L29.5 20.3727V16.875C29.5 16.7093 29.5658 16.5503 29.6831 16.4331C29.8003 16.3159 29.9592 16.25 30.125 16.25C30.2908 16.25 30.4497 16.3159 30.5669 16.4331C30.6842 16.5503 30.75 16.7093 30.75 16.875Z" fill="#164293"/>
<path d="M45.296 26.24C44.4693 26.24 43.7227 26.0987 43.056 25.816C42.3947 25.528 41.848 25.12 41.416 24.592C40.9893 24.0587 40.712 23.4267 40.584 22.696L42.328 22.432C42.504 23.136 42.872 23.6853 43.432 24.08C43.992 24.4693 44.6453 24.664 45.392 24.664C45.856 24.664 46.2827 24.592 46.672 24.448C47.0613 24.2987 47.3733 24.088 47.608 23.816C47.848 23.5387 47.968 23.208 47.968 22.824C47.968 22.616 47.9307 22.432 47.856 22.272C47.7867 22.112 47.688 21.9733 47.56 21.856C47.4373 21.7333 47.2853 21.6293 47.104 21.544C46.928 21.4533 46.7333 21.376 46.52 21.312L43.568 20.44C43.28 20.3547 42.9867 20.2453 42.688 20.112C42.3893 19.9733 42.1147 19.7947 41.864 19.576C41.6187 19.352 41.4187 19.0773 41.264 18.752C41.1093 18.4213 41.032 18.0213 41.032 17.552C41.032 16.8427 41.2133 16.2427 41.576 15.752C41.944 15.256 42.44 14.8827 43.064 14.632C43.688 14.376 44.3867 14.248 45.16 14.248C45.9387 14.2587 46.6347 14.3973 47.248 14.664C47.8667 14.9307 48.3787 15.3147 48.784 15.816C49.1947 16.312 49.4773 16.9147 49.632 17.624L47.84 17.928C47.76 17.496 47.5893 17.1253 47.328 16.816C47.0667 16.5013 46.7467 16.2613 46.368 16.096C45.9893 15.9253 45.5787 15.8373 45.136 15.832C44.7093 15.8213 44.3173 15.8853 43.96 16.024C43.608 16.1627 43.3253 16.3573 43.112 16.608C42.904 16.8587 42.8 17.1467 42.8 17.472C42.8 17.792 42.8933 18.0507 43.08 18.248C43.2667 18.4453 43.496 18.6027 43.768 18.72C44.0453 18.832 44.32 18.9253 44.592 19L46.72 19.6C46.9867 19.6747 47.288 19.776 47.624 19.904C47.9653 20.0267 48.2933 20.2 48.608 20.424C48.928 20.648 49.192 20.9467 49.4 21.32C49.608 21.688 49.712 22.152 49.712 22.712C49.712 23.2933 49.5947 23.8053 49.36 24.248C49.1253 24.6853 48.8027 25.0533 48.392 25.352C47.9867 25.6453 47.5173 25.8667 46.984 26.016C46.4507 26.1653 45.888 26.24 45.296 26.24ZM51.4089 26L51.4169 14.48H53.1129V21.52L56.5049 17.36H58.6329L55.0489 21.68L59.0009 26H56.7289L53.1129 21.84V26H51.4089ZM59.9675 15.944V14.32H61.6395V15.944H59.9675ZM59.9675 26V17.36H61.6395V26H59.9675ZM68.0979 26.24C67.2712 26.24 66.5779 26.04 66.0179 25.64C65.4579 25.2347 65.0339 24.688 64.7459 24C64.4579 23.312 64.3139 22.536 64.3139 21.672C64.3139 20.808 64.4552 20.032 64.7379 19.344C65.0259 18.656 65.4472 18.1147 66.0019 17.72C66.5619 17.32 67.2499 17.12 68.0659 17.12C68.8765 17.12 69.5752 17.32 70.1619 17.72C70.7539 18.1147 71.2099 18.656 71.5299 19.344C71.8499 20.0267 72.0099 20.8027 72.0099 21.672C72.0099 22.536 71.8499 23.3147 71.5299 24.008C71.2152 24.696 70.7645 25.24 70.1779 25.64C69.5965 26.04 68.9032 26.24 68.0979 26.24ZM64.0339 29.84V17.36H65.5219V23.576H65.7139V29.84H64.0339ZM67.8659 24.728C68.3992 24.728 68.8392 24.592 69.1859 24.32C69.5379 24.048 69.7992 23.6827 69.9699 23.224C70.1459 22.76 70.2339 22.2427 70.2339 21.672C70.2339 21.1067 70.1459 20.5947 69.9699 20.136C69.7992 19.6773 69.5352 19.312 69.1779 19.04C68.8205 18.768 68.3645 18.632 67.8099 18.632C67.2872 18.632 66.8552 18.76 66.5139 19.016C66.1779 19.272 65.9272 19.6293 65.7619 20.088C65.6019 20.5467 65.5219 21.0747 65.5219 21.672C65.5219 22.2693 65.6019 22.7973 65.7619 23.256C65.9219 23.7147 66.1752 24.0747 66.5219 24.336C66.8685 24.5973 67.3165 24.728 67.8659 24.728Z" fill="#164293"/>
</svg>
