<svg width="133" height="40" viewBox="0 0 133 40" fill="none" xmlns="http://www.w3.org/2000/svg">
<rect x="0.5" y="0.5" width="132" height="39" rx="3.5" fill="#164293"/>
<rect x="0.5" y="0.5" width="132" height="39" rx="3.5" stroke="#164293"/>
<path d="M29.9422 27.0579L26.0305 23.1469C27.1642 21.7858 27.7296 20.0399 27.6089 18.2725C27.4883 16.5051 26.6909 14.8523 25.3826 13.6578C24.0744 12.4634 22.356 11.8193 20.5849 11.8596C18.8139 11.8998 17.1265 12.6213 15.8739 13.8739C14.6212 15.1266 13.8998 16.8139 13.8595 18.585C13.8193 20.356 14.4633 22.0744 15.6578 23.3827C16.8522 24.6909 18.5051 25.4883 20.2724 25.609C22.0398 25.7297 23.7857 25.1643 25.1469 24.0305L29.0578 27.9422C29.1159 28.0003 29.1848 28.0464 29.2607 28.0778C29.3366 28.1092 29.4179 28.1254 29.5 28.1254C29.5821 28.1254 29.6634 28.1092 29.7393 28.0778C29.8152 28.0464 29.8841 28.0003 29.9422 27.9422C30.0003 27.8842 30.0463 27.8152 30.0777 27.7394C30.1092 27.6635 30.1253 27.5822 30.1253 27.5001C30.1253 27.4179 30.1092 27.3366 30.0777 27.2607C30.0463 27.1849 30.0003 27.1159 29.9422 27.0579ZM15.125 18.7501C15.125 17.6375 15.4549 16.55 16.073 15.625C16.6911 14.6999 17.5696 13.979 18.5974 13.5532C19.6252 13.1275 20.7562 13.0161 21.8474 13.2331C22.9385 13.4502 23.9408 13.9859 24.7275 14.7726C25.5141 15.5593 26.0499 16.5615 26.2669 17.6527C26.484 18.7438 26.3726 19.8748 25.9468 20.9027C25.5211 21.9305 24.8001 22.809 23.8751 23.4271C22.9501 24.0452 21.8625 24.3751 20.75 24.3751C19.2587 24.3734 17.8289 23.7802 16.7743 22.7257C15.7198 21.6712 15.1266 20.2414 15.125 18.7501Z" fill="white"/>
<path d="M45.296 26.24C44.4693 26.24 43.7227 26.0987 43.056 25.816C42.3947 25.528 41.848 25.12 41.416 24.592C40.9893 24.0587 40.712 23.4267 40.584 22.696L42.328 22.432C42.504 23.136 42.872 23.6853 43.432 24.08C43.992 24.4693 44.6453 24.664 45.392 24.664C45.856 24.664 46.2827 24.592 46.672 24.448C47.0613 24.2987 47.3733 24.088 47.608 23.816C47.848 23.5387 47.968 23.208 47.968 22.824C47.968 22.616 47.9307 22.432 47.856 22.272C47.7867 22.112 47.688 21.9733 47.56 21.856C47.4373 21.7333 47.2853 21.6293 47.104 21.544C46.928 21.4533 46.7333 21.376 46.52 21.312L43.568 20.44C43.28 20.3547 42.9867 20.2453 42.688 20.112C42.3893 19.9733 42.1147 19.7947 41.864 19.576C41.6187 19.352 41.4187 19.0773 41.264 18.752C41.1093 18.4213 41.032 18.0213 41.032 17.552C41.032 16.8427 41.2133 16.2427 41.576 15.752C41.944 15.256 42.44 14.8827 43.064 14.632C43.688 14.376 44.3867 14.248 45.16 14.248C45.9387 14.2587 46.6347 14.3973 47.248 14.664C47.8667 14.9307 48.3787 15.3147 48.784 15.816C49.1947 16.312 49.4773 16.9147 49.632 17.624L47.84 17.928C47.76 17.496 47.5893 17.1253 47.328 16.816C47.0667 16.5013 46.7467 16.2613 46.368 16.096C45.9893 15.9253 45.5787 15.8373 45.136 15.832C44.7093 15.8213 44.3173 15.8853 43.96 16.024C43.608 16.1627 43.3253 16.3573 43.112 16.608C42.904 16.8587 42.8 17.1467 42.8 17.472C42.8 17.792 42.8933 18.0507 43.08 18.248C43.2667 18.4453 43.496 18.6027 43.768 18.72C44.0453 18.832 44.32 18.9253 44.592 19L46.72 19.6C46.9867 19.6747 47.288 19.776 47.624 19.904C47.9653 20.0267 48.2933 20.2 48.608 20.424C48.928 20.648 49.192 20.9467 49.4 21.32C49.608 21.688 49.712 22.152 49.712 22.712C49.712 23.2933 49.5947 23.8053 49.36 24.248C49.1253 24.6853 48.8027 25.0533 48.392 25.352C47.9867 25.6453 47.5173 25.8667 46.984 26.016C46.4507 26.1653 45.888 26.24 45.296 26.24ZM55.2489 26.24C54.3902 26.24 53.6355 26.0533 52.9849 25.68C52.3395 25.3013 51.8355 24.776 51.4729 24.104C51.1155 23.4267 50.9369 22.6427 50.9369 21.752C50.9369 20.808 51.1129 19.9893 51.4649 19.296C51.8222 18.6027 52.3182 18.0667 52.9529 17.688C53.5875 17.3093 54.3262 17.12 55.1689 17.12C56.0489 17.12 56.7982 17.3253 57.4169 17.736C58.0355 18.1413 58.4969 18.72 58.8009 19.472C59.1102 20.224 59.2329 21.1173 59.1689 22.152H57.4969V21.544C57.4862 20.5413 57.2942 19.8 56.9209 19.32C56.5529 18.84 55.9902 18.6 55.2329 18.6C54.3955 18.6 53.7662 18.864 53.3449 19.392C52.9235 19.92 52.7129 20.6827 52.7129 21.68C52.7129 22.6293 52.9235 23.3653 53.3449 23.888C53.7662 24.4053 54.3742 24.664 55.1689 24.664C55.6915 24.664 56.1422 24.5467 56.5209 24.312C56.9049 24.072 57.2035 23.7307 57.4169 23.288L59.0569 23.808C58.7209 24.5813 58.2115 25.1813 57.5289 25.608C56.8462 26.0293 56.0862 26.24 55.2489 26.24ZM52.1689 22.152V20.848H58.3369V22.152H52.1689ZM61.1238 26V14.24H62.7958V26H61.1238ZM69.0301 26.24C68.1715 26.24 67.4168 26.0533 66.7661 25.68C66.1208 25.3013 65.6168 24.776 65.2541 24.104C64.8968 23.4267 64.7181 22.6427 64.7181 21.752C64.7181 20.808 64.8941 19.9893 65.2461 19.296C65.6035 18.6027 66.0995 18.0667 66.7341 17.688C67.3688 17.3093 68.1075 17.12 68.9501 17.12C69.8301 17.12 70.5795 17.3253 71.1981 17.736C71.8168 18.1413 72.2781 18.72 72.5821 19.472C72.8915 20.224 73.0141 21.1173 72.9501 22.152H71.2781V21.544C71.2675 20.5413 71.0755 19.8 70.7021 19.32C70.3341 18.84 69.7715 18.6 69.0141 18.6C68.1768 18.6 67.5475 18.864 67.1261 19.392C66.7048 19.92 66.4941 20.6827 66.4941 21.68C66.4941 22.6293 66.7048 23.3653 67.1261 23.888C67.5475 24.4053 68.1555 24.664 68.9501 24.664C69.4728 24.664 69.9235 24.5467 70.3021 24.312C70.6861 24.072 70.9848 23.7307 71.1981 23.288L72.8381 23.808C72.5021 24.5813 71.9928 25.1813 71.3101 25.608C70.6275 26.0293 69.8675 26.24 69.0301 26.24ZM65.9501 22.152V20.848H72.1181V22.152H65.9501ZM78.441 26.24C77.5557 26.24 76.8037 26.0427 76.185 25.648C75.5663 25.2533 75.0917 24.712 74.761 24.024C74.4357 23.336 74.2703 22.5547 74.265 21.68C74.2703 20.7893 74.441 20.0027 74.777 19.32C75.113 18.632 75.593 18.0933 76.217 17.704C76.841 17.3147 77.5903 17.12 78.465 17.12C79.409 17.12 80.2143 17.3547 80.881 17.824C81.553 18.2933 81.9957 18.936 82.209 19.752L80.545 20.232C80.3797 19.7467 80.1077 19.3707 79.729 19.104C79.3557 18.832 78.9263 18.696 78.441 18.696C77.8917 18.696 77.441 18.8267 77.089 19.088C76.737 19.344 76.4757 19.696 76.305 20.144C76.1343 20.592 76.0463 21.104 76.041 21.68C76.0463 22.5707 76.249 23.2907 76.649 23.84C77.0543 24.3893 77.6517 24.664 78.441 24.664C78.9797 24.664 79.4143 24.5413 79.745 24.296C80.081 24.0453 80.337 23.688 80.513 23.224L82.209 23.624C81.9263 24.4667 81.4597 25.1147 80.809 25.568C80.1583 26.016 79.369 26.24 78.441 26.24ZM88.7828 26C88.2388 26.1067 87.7054 26.152 87.1828 26.136C86.6601 26.12 86.1934 26.0187 85.7828 25.832C85.3721 25.6453 85.0628 25.352 84.8548 24.952C84.6681 24.5947 84.5668 24.232 84.5508 23.864C84.5401 23.4907 84.5348 23.0693 84.5348 22.6V14.96H86.2148V22.52C86.2148 22.8667 86.2174 23.168 86.2228 23.424C86.2334 23.68 86.2894 23.896 86.3908 24.072C86.5828 24.4027 86.8868 24.592 87.3028 24.64C87.7241 24.6827 88.2174 24.664 88.7828 24.584V26ZM82.8788 18.704V17.36H88.7828V18.704H82.8788ZM94.5995 26V17.056C94.5995 16.8373 94.6075 16.6053 94.6235 16.36C94.6395 16.1093 94.6848 15.864 94.7595 15.624C94.8395 15.3787 94.9702 15.1547 95.1515 14.952C95.3702 14.712 95.6102 14.5413 95.8715 14.44C96.1328 14.3387 96.3915 14.28 96.6475 14.264C96.9088 14.248 97.1488 14.24 97.3675 14.24H98.4555V15.616H97.4475C97.0528 15.616 96.7568 15.7147 96.5595 15.912C96.3675 16.104 96.2715 16.3787 96.2715 16.736V26H94.5995ZM93.1675 18.704V17.36H98.4555V18.704H93.1675ZM100.136 15.944V14.32H101.808V15.944H100.136ZM100.136 26V17.36H101.808V26H100.136ZM104.374 26V14.24H106.046V26H104.374ZM112.28 26.24C111.421 26.24 110.667 26.0533 110.016 25.68C109.371 25.3013 108.867 24.776 108.504 24.104C108.147 23.4267 107.968 22.6427 107.968 21.752C107.968 20.808 108.144 19.9893 108.496 19.296C108.853 18.6027 109.349 18.0667 109.984 17.688C110.619 17.3093 111.357 17.12 112.2 17.12C113.08 17.12 113.829 17.3253 114.448 17.736C115.067 18.1413 115.528 18.72 115.832 19.472C116.141 20.224 116.264 21.1173 116.2 22.152H114.528V21.544C114.517 20.5413 114.325 19.8 113.952 19.32C113.584 18.84 113.021 18.6 112.264 18.6C111.427 18.6 110.797 18.864 110.376 19.392C109.955 19.92 109.744 20.6827 109.744 21.68C109.744 22.6293 109.955 23.3653 110.376 23.888C110.797 24.4053 111.405 24.664 112.2 24.664C112.723 24.664 113.173 24.5467 113.552 24.312C113.936 24.072 114.235 23.7307 114.448 23.288L116.088 23.808C115.752 24.5813 115.243 25.1813 114.56 25.608C113.877 26.0293 113.117 26.24 112.28 26.24ZM109.2 22.152V20.848H115.368V22.152H109.2Z" fill="white"/>
</svg>
